<svg width="69" height="20" viewBox="0 0 69 20" fill="none" xmlns="http://www.w3.org/2000/svg">
<path d="M1.32584 19.2195V20H0.545351V19.2195H1.32584ZM1.32584 18.439V19.2195H0.545351V18.439H1.32584ZM1.32584 17.6585V18.439H0.545351V17.6585H1.32584ZM1.32584 16.878V17.6585H0.545351V16.878H1.32584ZM1.32584 16.0976V16.878H0.545351V16.0976H1.32584ZM1.32584 15.3171V16.0976H0.545351V15.3171H1.32584ZM1.32584 14.5366V15.3171H0.545351V14.5366H1.32584ZM1.32584 13.7561V14.5366H0.545351V13.7561H1.32584ZM1.32584 12.9756V13.7561H0.545351V12.9756H1.32584ZM1.32584 12.1951V12.9756H0.545351V12.1951H1.32584ZM1.32584 11.4146V12.1951H0.545351V11.4146H1.32584ZM1.32584 10.6341V11.4146H0.545351V10.6341H1.32584ZM1.32584 9.85366V10.6341H0.545351V9.85366H1.32584ZM1.32584 9.07317V9.85366H0.545351V9.07317H1.32584ZM1.32584 8.29268V9.07317H0.545351V8.29268H1.32584ZM2.10633 8.29268V9.07317H1.32584V8.29268H2.10633ZM2.10633 9.07317V9.85366H1.32584V9.07317H2.10633ZM2.10633 9.85366V10.6341H1.32584V9.85366H2.10633ZM2.10633 10.6341V11.4146H1.32584V10.6341H2.10633ZM2.10633 11.4146V12.1951H1.32584V11.4146H2.10633ZM2.10633 12.1951V12.9756H1.32584V12.1951H2.10633ZM2.10633 12.9756V13.7561H1.32584V12.9756H2.10633ZM2.88681 13.7561V14.5366H2.10633V13.7561H2.88681ZM2.88681 14.5366V15.3171H2.10633V14.5366H2.88681ZM2.88681 15.3171V16.0976H2.10633V15.3171H2.88681ZM2.88681 16.0976V16.878H2.10633V16.0976H2.88681ZM2.88681 16.878V17.6585H2.10633V16.878H2.88681ZM2.88681 17.6585V18.439H2.10633V17.6585H2.88681ZM2.88681 18.439V19.2195H2.10633V18.439H2.88681ZM2.88681 19.2195V20H2.10633V19.2195H2.88681ZM3.6673 19.2195V20H2.88681V19.2195H3.6673ZM4.44779 19.2195V20H3.6673V19.2195H4.44779ZM4.44779 18.439V19.2195H3.6673V18.439H4.44779ZM4.44779 17.6585V18.439H3.6673V17.6585H4.44779ZM4.44779 16.878V17.6585H3.6673V16.878H4.44779ZM4.44779 16.0976V16.878H3.6673V16.0976H4.44779ZM4.44779 15.3171V16.0976H3.6673V15.3171H4.44779ZM4.44779 14.5366V15.3171H3.6673V14.5366H4.44779ZM4.44779 13.7561V14.5366H3.6673V13.7561H4.44779ZM3.6673 13.7561V14.5366H2.88681V13.7561H3.6673ZM3.6673 12.9756V13.7561H2.88681V12.9756H3.6673ZM3.6673 14.5366V15.3171H2.88681V14.5366H3.6673ZM3.6673 15.3171V16.0976H2.88681V15.3171H3.6673ZM3.6673 16.0976V16.878H2.88681V16.0976H3.6673ZM3.6673 16.878V17.6585H2.88681V16.878H3.6673ZM3.6673 17.6585V18.439H2.88681V17.6585H3.6673ZM3.6673 18.439V19.2195H2.88681V18.439H3.6673ZM2.10633 19.2195V20H1.32584V19.2195H2.10633ZM2.10633 18.439V19.2195H1.32584V18.439H2.10633ZM2.10633 17.6585V18.439H1.32584V17.6585H2.10633ZM2.10633 16.878V17.6585H1.32584V16.878H2.10633ZM2.10633 16.0976V16.878H1.32584V16.0976H2.10633ZM2.10633 15.3171V16.0976H1.32584V15.3171H2.10633ZM2.10633 14.5366V15.3171H1.32584V14.5366H2.10633ZM2.10633 13.7561V14.5366H1.32584V13.7561H2.10633ZM1.32584 5.95122V6.73171H0.545351V5.95122H1.32584ZM1.32584 6.73171V7.5122H0.545351V6.73171H1.32584ZM1.32584 7.5122V8.29268H0.545351V7.5122H1.32584ZM3.6673 4.39024V5.17073H2.88681V4.39024H3.6673ZM3.6673 5.95122V6.73171H2.88681V5.95122H3.6673ZM3.6673 6.73171V7.5122H2.88681V6.73171H3.6673ZM3.6673 7.5122V8.29268H2.88681V7.5122H3.6673ZM3.6673 8.29268V9.07317H2.88681V8.29268H3.6673ZM3.6673 9.07317V9.85366H2.88681V9.07317H3.6673ZM3.6673 9.85366V10.6341H2.88681V9.85366H3.6673ZM3.6673 10.6341V11.4146H2.88681V10.6341H3.6673ZM4.44779 11.4146V12.1951H3.6673V11.4146H4.44779ZM4.44779 12.1951V12.9756H3.6673V12.1951H4.44779ZM4.44779 12.9756V13.7561H3.6673V12.9756H4.44779ZM4.44779 10.6341V11.4146H3.6673V10.6341H4.44779ZM4.44779 9.85366V10.6341H3.6673V9.85366H4.44779ZM4.44779 9.07317V9.85366H3.6673V9.07317H4.44779ZM4.44779 8.29268V9.07317H3.6673V8.29268H4.44779ZM4.44779 7.5122V8.29268H3.6673V7.5122H4.44779ZM4.44779 6.73171V7.5122H3.6673V6.73171H4.44779ZM4.44779 5.95122V6.73171H3.6673V5.95122H4.44779ZM4.44779 5.17073V5.95122H3.6673V5.17073H4.44779ZM4.44779 4.39024V5.17073H3.6673V4.39024H4.44779ZM4.44779 3.60976V4.39024H3.6673V3.60976H4.44779ZM3.6673 5.17073V5.95122H2.88681V5.17073H3.6673ZM4.44779 2.82927V3.60976H3.6673V2.82927H4.44779ZM4.44779 2.04878V2.82927H3.6673V2.04878H4.44779ZM2.88681 4.39024V5.17073H2.10633V4.39024H2.88681ZM2.88681 5.17073V5.95122H2.10633V5.17073H2.88681ZM2.88681 5.95122V6.73171H2.10633V5.95122H2.88681ZM2.10633 6.73171V7.5122H1.32584V6.73171H2.10633ZM2.10633 7.5122V8.29268H1.32584V7.5122H2.10633ZM2.10633 5.95122V6.73171H1.32584V5.95122H2.10633ZM2.10633 5.17073V5.95122H1.32584V5.17073H2.10633ZM2.88681 6.73171V7.5122H2.10633V6.73171H2.88681ZM2.88681 7.5122V8.29268H2.10633V7.5122H2.88681ZM2.88681 8.29268V9.07317H2.10633V8.29268H2.88681ZM2.88681 9.07317V9.85366H2.10633V9.07317H2.88681ZM2.88681 9.85366V10.6341H2.10633V9.85366H2.88681ZM2.88681 10.6341V11.4146H2.10633V10.6341H2.88681ZM2.88681 11.4146V12.1951H2.10633V11.4146H2.88681ZM2.88681 12.1951V12.9756H2.10633V12.1951H2.88681ZM2.88681 12.9756V13.7561H2.10633V12.9756H2.88681ZM3.6673 12.1951V12.9756H2.88681V12.1951H3.6673ZM3.6673 11.4146V12.1951H2.88681V11.4146H3.6673ZM9.9112 19.2195V20H9.13072V19.2195H9.9112ZM9.9112 18.439V19.2195H9.13072V18.439H9.9112ZM9.9112 17.6585V18.439H9.13072V17.6585H9.9112ZM9.9112 16.878V17.6585H9.13072V16.878H9.9112ZM9.9112 16.0976V16.878H9.13072V16.0976H9.9112ZM9.9112 15.3171V16.0976H9.13072V15.3171H9.9112ZM9.9112 14.5366V15.3171H9.13072V14.5366H9.9112ZM9.9112 13.7561V14.5366H9.13072V13.7561H9.9112ZM9.9112 12.9756V13.7561H9.13072V12.9756H9.9112ZM9.9112 12.1951V12.9756H9.13072V12.1951H9.9112ZM9.9112 11.4146V12.1951H9.13072V11.4146H9.9112ZM9.9112 10.6341V11.4146H9.13072V10.6341H9.9112ZM9.9112 9.85366V10.6341H9.13072V9.85366H9.9112ZM9.9112 9.07317V9.85366H9.13072V9.07317H9.9112ZM9.9112 8.29268V9.07317H9.13072V8.29268H9.9112ZM10.6917 8.29268V9.07317H9.9112V8.29268H10.6917ZM10.6917 9.07317V9.85366H9.9112V9.07317H10.6917ZM10.6917 9.85366V10.6341H9.9112V9.85366H10.6917ZM10.6917 10.6341V11.4146H9.9112V10.6341H10.6917ZM10.6917 11.4146V12.1951H9.9112V11.4146H10.6917ZM10.6917 12.1951V12.9756H9.9112V12.1951H10.6917ZM10.6917 12.9756V13.7561H9.9112V12.9756H10.6917ZM11.4722 13.7561V14.5366H10.6917V13.7561H11.4722ZM11.4722 14.5366V15.3171H10.6917V14.5366H11.4722ZM11.4722 15.3171V16.0976H10.6917V15.3171H11.4722ZM11.4722 16.0976V16.878H10.6917V16.0976H11.4722ZM11.4722 16.878V17.6585H10.6917V16.878H11.4722ZM11.4722 17.6585V18.439H10.6917V17.6585H11.4722ZM11.4722 18.439V19.2195H10.6917V18.439H11.4722ZM11.4722 19.2195V20H10.6917V19.2195H11.4722ZM12.2527 19.2195V20H11.4722V19.2195H12.2527ZM13.0332 19.2195V20H12.2527V19.2195H13.0332ZM13.0332 18.439V19.2195H12.2527V18.439H13.0332ZM13.0332 17.6585V18.439H12.2527V17.6585H13.0332ZM13.0332 16.878V17.6585H12.2527V16.878H13.0332ZM13.0332 16.0976V16.878H12.2527V16.0976H13.0332ZM13.0332 15.3171V16.0976H12.2527V15.3171H13.0332ZM13.0332 14.5366V15.3171H12.2527V14.5366H13.0332ZM13.0332 13.7561V14.5366H12.2527V13.7561H13.0332ZM12.2527 13.7561V14.5366H11.4722V13.7561H12.2527ZM12.2527 12.9756V13.7561H11.4722V12.9756H12.2527ZM12.2527 14.5366V15.3171H11.4722V14.5366H12.2527ZM12.2527 15.3171V16.0976H11.4722V15.3171H12.2527ZM12.2527 16.0976V16.878H11.4722V16.0976H12.2527ZM12.2527 16.878V17.6585H11.4722V16.878H12.2527ZM12.2527 17.6585V18.439H11.4722V17.6585H12.2527ZM12.2527 18.439V19.2195H11.4722V18.439H12.2527ZM10.6917 19.2195V20H9.9112V19.2195H10.6917ZM10.6917 18.439V19.2195H9.9112V18.439H10.6917ZM10.6917 17.6585V18.439H9.9112V17.6585H10.6917ZM10.6917 16.878V17.6585H9.9112V16.878H10.6917ZM10.6917 16.0976V16.878H9.9112V16.0976H10.6917ZM10.6917 15.3171V16.0976H9.9112V15.3171H10.6917ZM10.6917 14.5366V15.3171H9.9112V14.5366H10.6917ZM10.6917 13.7561V14.5366H9.9112V13.7561H10.6917ZM9.9112 2.04878V2.82927H9.13072V2.04878H9.9112ZM9.9112 2.82927V3.60976H9.13072V2.82927H9.9112ZM9.9112 3.60976V4.39024H9.13072V3.60976H9.9112ZM9.9112 4.39024V5.17073H9.13072V4.39024H9.9112ZM9.9112 5.17073V5.95122H9.13072V5.17073H9.9112ZM9.9112 5.95122V6.73171H9.13072V5.95122H9.9112ZM9.9112 6.73171V7.5122H9.13072V6.73171H9.9112ZM9.9112 7.5122V8.29268H9.13072V7.5122H9.9112ZM12.2527 4.39024V5.17073H11.4722V4.39024H12.2527ZM12.2527 5.95122V6.73171H11.4722V5.95122H12.2527ZM12.2527 6.73171V7.5122H11.4722V6.73171H12.2527ZM12.2527 7.5122V8.29268H11.4722V7.5122H12.2527ZM12.2527 8.29268V9.07317H11.4722V8.29268H12.2527ZM12.2527 9.07317V9.85366H11.4722V9.07317H12.2527ZM12.2527 9.85366V10.6341H11.4722V9.85366H12.2527ZM12.2527 10.6341V11.4146H11.4722V10.6341H12.2527ZM13.0332 11.4146V12.1951H12.2527V11.4146H13.0332ZM13.0332 12.1951V12.9756H12.2527V12.1951H13.0332ZM13.0332 12.9756V13.7561H12.2527V12.9756H13.0332ZM13.0332 10.6341V11.4146H12.2527V10.6341H13.0332ZM13.0332 9.85366V10.6341H12.2527V9.85366H13.0332ZM13.0332 9.07317V9.85366H12.2527V9.07317H13.0332ZM13.0332 8.29268V9.07317H12.2527V8.29268H13.0332ZM13.0332 7.5122V8.29268H12.2527V7.5122H13.0332ZM13.0332 6.73171V7.5122H12.2527V6.73171H13.0332ZM13.0332 5.95122V6.73171H12.2527V5.95122H13.0332ZM13.0332 5.17073V5.95122H12.2527V5.17073H13.0332ZM12.2527 5.17073V5.95122H11.4722V5.17073H12.2527ZM11.4722 3.60976V4.39024H10.6917V3.60976H11.4722ZM11.4722 4.39024V5.17073H10.6917V4.39024H11.4722ZM11.4722 5.17073V5.95122H10.6917V5.17073H11.4722ZM11.4722 5.95122V6.73171H10.6917V5.95122H11.4722ZM10.6917 6.73171V7.5122H9.9112V6.73171H10.6917ZM10.6917 7.5122V8.29268H9.9112V7.5122H10.6917ZM10.6917 5.95122V6.73171H9.9112V5.95122H10.6917ZM10.6917 5.17073V5.95122H9.9112V5.17073H10.6917ZM10.6917 4.39024V5.17073H9.9112V4.39024H10.6917ZM10.6917 3.60976V4.39024H9.9112V3.60976H10.6917ZM10.6917 2.82927V3.60976H9.9112V2.82927H10.6917ZM11.4722 6.73171V7.5122H10.6917V6.73171H11.4722ZM11.4722 7.5122V8.29268H10.6917V7.5122H11.4722ZM11.4722 8.29268V9.07317H10.6917V8.29268H11.4722ZM11.4722 9.07317V9.85366H10.6917V9.07317H11.4722ZM11.4722 9.85366V10.6341H10.6917V9.85366H11.4722ZM11.4722 10.6341V11.4146H10.6917V10.6341H11.4722ZM11.4722 11.4146V12.1951H10.6917V11.4146H11.4722ZM11.4722 12.1951V12.9756H10.6917V12.1951H11.4722ZM11.4722 12.9756V13.7561H10.6917V12.9756H11.4722ZM12.2527 12.1951V12.9756H11.4722V12.1951H12.2527ZM12.2527 11.4146V12.1951H11.4722V11.4146H12.2527ZM6.00877 0.487804V1.26829H5.22828V0.487804H6.00877ZM6.78925 0.487804V1.26829H6.00877V0.487804H6.78925ZM7.56974 0.487804V1.26829H6.78925V0.487804H7.56974ZM8.35023 0.487804V1.26829H7.56974V0.487804H8.35023ZM9.13072 1.26829V2.04878H8.35023V1.26829H9.13072ZM8.35023 1.26829V2.04878H7.56974V1.26829H8.35023ZM7.56974 1.26829V2.04878H6.78925V1.26829H7.56974ZM6.78925 1.26829V2.04878H6.00877V1.26829H6.78925ZM6.00877 1.26829V2.04878H5.22828V1.26829H6.00877ZM5.22828 1.26829V2.04878H4.44779V1.26829H5.22828ZM5.22828 2.04878V2.82927H4.44779V2.04878H5.22828ZM5.22828 2.82927V3.60976H4.44779V2.82927H5.22828ZM6.00877 2.04878V2.82927H5.22828V2.04878H6.00877ZM6.78925 2.04878V2.82927H6.00877V2.04878H6.78925ZM7.56974 2.04878V2.82927H6.78925V2.04878H7.56974ZM8.35023 2.04878V2.82927H7.56974V2.04878H8.35023ZM9.13072 2.04878V2.82927H8.35023V2.04878H9.13072ZM9.13072 2.82927V3.60976H8.35023V2.82927H9.13072ZM8.35023 2.82927V3.60976H7.56974V2.82927H8.35023ZM7.56974 2.82927V3.60976H6.78925V2.82927H7.56974ZM6.78925 2.82927V3.60976H6.00877V2.82927H6.78925ZM6.00877 2.82927V3.60976H5.22828V2.82927H6.00877ZM5.22828 3.60976V4.39024H4.44779V3.60976H5.22828ZM6.00877 3.60976V4.39024H5.22828V3.60976H6.00877ZM9.13072 3.60976V4.39024H8.35023V3.60976H9.13072ZM8.35023 3.60976V4.39024H7.56974V3.60976H8.35023ZM9.13072 4.39024V5.17073H8.35023V4.39024H9.13072ZM5.22828 4.39024V5.17073H4.44779V4.39024H5.22828ZM3.6673 2.82927V3.60976H2.88681V2.82927H3.6673ZM3.6673 3.60976V4.39024H2.88681V3.60976H3.6673ZM2.88681 3.60976V4.39024H2.10633V3.60976H2.88681ZM2.10633 4.39024V5.17073H1.32584V4.39024H2.10633ZM1.32584 5.17073V5.95122H0.545351V5.17073H1.32584ZM5.22828 5.17073V5.95122H4.44779V5.17073H5.22828ZM6.00877 4.39024V5.17073H5.22828V4.39024H6.00877ZM6.78925 3.60976V4.39024H6.00877V3.60976H6.78925ZM7.56974 3.60976V4.39024H6.78925V3.60976H7.56974ZM8.35023 4.39024V5.17073H7.56974V4.39024H8.35023ZM9.13072 5.17073V5.95122H8.35023V5.17073H9.13072ZM5.22828 14.5366V15.3171H4.44779V14.5366H5.22828ZM6.00877 14.5366V15.3171H5.22828V14.5366H6.00877ZM6.78925 14.5366V15.3171H6.00877V14.5366H6.78925ZM7.56974 14.5366V15.3171H6.78925V14.5366H7.56974ZM8.35023 14.5366V15.3171H7.56974V14.5366H8.35023ZM9.13072 14.5366V15.3171H8.35023V14.5366H9.13072ZM9.13072 13.7561V14.5366H8.35023V13.7561H9.13072ZM8.35023 13.7561V14.5366H7.56974V13.7561H8.35023ZM7.56974 13.7561V14.5366H6.78925V13.7561H7.56974ZM6.78925 13.7561V14.5366H6.00877V13.7561H6.78925ZM6.00877 13.7561V14.5366H5.22828V13.7561H6.00877ZM5.22828 13.7561V14.5366H4.44779V13.7561H5.22828ZM5.22828 12.9756V13.7561H4.44779V12.9756H5.22828ZM6.00877 12.9756V13.7561H5.22828V12.9756H6.00877ZM6.78925 12.9756V13.7561H6.00877V12.9756H6.78925ZM7.56974 12.9756V13.7561H6.78925V12.9756H7.56974ZM8.35023 12.9756V13.7561H7.56974V12.9756H8.35023ZM9.13072 12.9756V13.7561H8.35023V12.9756H9.13072ZM9.13072 12.1951V12.9756H8.35023V12.1951H9.13072ZM8.35023 12.1951V12.9756H7.56974V12.1951H8.35023ZM7.56974 12.1951V12.9756H6.78925V12.1951H7.56974ZM6.78925 12.1951V12.9756H6.00877V12.1951H6.78925ZM6.00877 12.1951V12.9756H5.22828V12.1951H6.00877ZM5.22828 12.1951V12.9756H4.44779V12.1951H5.22828ZM5.22828 11.4146V12.1951H4.44779V11.4146H5.22828ZM6.00877 11.4146V12.1951H5.22828V11.4146H6.00877ZM6.78925 11.4146V12.1951H6.00877V11.4146H6.78925ZM7.56974 11.4146V12.1951H6.78925V11.4146H7.56974ZM8.35023 11.4146V12.1951H7.56974V11.4146H8.35023ZM9.13072 11.4146V12.1951H8.35023V11.4146H9.13072ZM6.78925 4.39024V5.17073H6.00877V4.39024H6.78925ZM7.56974 4.39024V5.17073H6.78925V4.39024H7.56974ZM6.00877 5.17073V5.95122H5.22828V5.17073H6.00877ZM5.22828 5.95122V6.73171H4.44779V5.95122H5.22828ZM8.35023 5.17073V5.95122H7.56974V5.17073H8.35023ZM9.13072 5.95122V6.73171H8.35023V5.95122H9.13072ZM16.9508 19.2195V20H16.1704V19.2195H16.9508ZM16.9508 18.439V19.2195H16.1704V18.439H16.9508ZM16.9508 17.6585V18.439H16.1704V17.6585H16.9508ZM16.9508 16.878V17.6585H16.1704V16.878H16.9508ZM16.9508 16.0976V16.878H16.1704V16.0976H16.9508ZM16.9508 15.3171V16.0976H16.1704V15.3171H16.9508ZM16.9508 14.5366V15.3171H16.1704V14.5366H16.9508ZM16.9508 13.7561V14.5366H16.1704V13.7561H16.9508ZM16.9508 12.9756V13.7561H16.1704V12.9756H16.9508ZM16.9508 12.1951V12.9756H16.1704V12.1951H16.9508ZM16.9508 11.4146V12.1951H16.1704V11.4146H16.9508ZM16.9508 10.6341V11.4146H16.1704V10.6341H16.9508ZM16.9508 9.85366V10.6341H16.1704V9.85366H16.9508ZM16.9508 9.07317V9.85366H16.1704V9.07317H16.9508ZM16.9508 8.29268V9.07317H16.1704V8.29268H16.9508ZM17.7313 8.29268V9.07317H16.9508V8.29268H17.7313ZM17.7313 9.07317V9.85366H16.9508V9.07317H17.7313ZM17.7313 9.85366V10.6341H16.9508V9.85366H17.7313ZM17.7313 10.6341V11.4146H16.9508V10.6341H17.7313ZM17.7313 11.4146V12.1951H16.9508V11.4146H17.7313ZM17.7313 12.1951V12.9756H16.9508V12.1951H17.7313ZM17.7313 12.9756V13.7561H16.9508V12.9756H17.7313ZM18.5118 13.7561V14.5366H17.7313V13.7561H18.5118ZM18.5118 14.5366V15.3171H17.7313V14.5366H18.5118ZM18.5118 15.3171V16.0976H17.7313V15.3171H18.5118ZM18.5118 16.0976V16.878H17.7313V16.0976H18.5118ZM18.5118 16.878V17.6585H17.7313V16.878H18.5118ZM18.5118 17.6585V18.439H17.7313V17.6585H18.5118ZM18.5118 18.439V19.2195H17.7313V18.439H18.5118ZM18.5118 19.2195V20H17.7313V19.2195H18.5118ZM19.2923 19.2195V20H18.5118V19.2195H19.2923ZM20.0728 19.2195V20H19.2923V19.2195H20.0728ZM20.0728 18.439V19.2195H19.2923V18.439H20.0728ZM20.0728 17.6585V18.439H19.2923V17.6585H20.0728ZM20.0728 16.878V17.6585H19.2923V16.878H20.0728ZM20.0728 16.0976V16.878H19.2923V16.0976H20.0728ZM20.0728 15.3171V16.0976H19.2923V15.3171H20.0728ZM20.0728 14.5366V15.3171H19.2923V14.5366H20.0728ZM20.0728 13.7561V14.5366H19.2923V13.7561H20.0728ZM19.2923 13.7561V14.5366H18.5118V13.7561H19.2923ZM19.2923 12.9756V13.7561H18.5118V12.9756H19.2923ZM19.2923 14.5366V15.3171H18.5118V14.5366H19.2923ZM19.2923 15.3171V16.0976H18.5118V15.3171H19.2923ZM19.2923 16.0976V16.878H18.5118V16.0976H19.2923ZM19.2923 16.878V17.6585H18.5118V16.878H19.2923ZM19.2923 17.6585V18.439H18.5118V17.6585H19.2923ZM19.2923 18.439V19.2195H18.5118V18.439H19.2923ZM17.7313 19.2195V20H16.9508V19.2195H17.7313ZM17.7313 18.439V19.2195H16.9508V18.439H17.7313ZM17.7313 17.6585V18.439H16.9508V17.6585H17.7313ZM17.7313 16.878V17.6585H16.9508V16.878H17.7313ZM17.7313 16.0976V16.878H16.9508V16.0976H17.7313ZM17.7313 15.3171V16.0976H16.9508V15.3171H17.7313ZM17.7313 14.5366V15.3171H16.9508V14.5366H17.7313ZM17.7313 13.7561V14.5366H16.9508V13.7561H17.7313ZM16.9508 0.487804V1.26829H16.1704V0.487804H16.9508ZM16.9508 1.26829V2.04878H16.1704V1.26829H16.9508ZM16.9508 2.04878V2.82927H16.1704V2.04878H16.9508ZM16.9508 2.82927V3.60976H16.1704V2.82927H16.9508ZM16.9508 3.60976V4.39024H16.1704V3.60976H16.9508ZM16.9508 4.39024V5.17073H16.1704V4.39024H16.9508ZM16.9508 5.17073V5.95122H16.1704V5.17073H16.9508ZM16.9508 5.95122V6.73171H16.1704V5.95122H16.9508ZM16.9508 6.73171V7.5122H16.1704V6.73171H16.9508ZM16.9508 7.5122V8.29268H16.1704V7.5122H16.9508ZM19.2923 0.487804V1.26829H18.5118V0.487804H19.2923ZM19.2923 1.26829V2.04878H18.5118V1.26829H19.2923ZM19.2923 2.04878V2.82927H18.5118V2.04878H19.2923ZM19.2923 2.82927V3.60976H18.5118V2.82927H19.2923ZM19.2923 3.60976V4.39024H18.5118V3.60976H19.2923ZM19.2923 4.39024V5.17073H18.5118V4.39024H19.2923ZM19.2923 5.95122V6.73171H18.5118V5.95122H19.2923ZM19.2923 6.73171V7.5122H18.5118V6.73171H19.2923ZM19.2923 7.5122V8.29268H18.5118V7.5122H19.2923ZM19.2923 8.29268V9.07317H18.5118V8.29268H19.2923ZM19.2923 9.07317V9.85366H18.5118V9.07317H19.2923ZM19.2923 9.85366V10.6341H18.5118V9.85366H19.2923ZM19.2923 10.6341V11.4146H18.5118V10.6341H19.2923ZM20.0728 11.4146V12.1951H19.2923V11.4146H20.0728ZM20.0728 12.1951V12.9756H19.2923V12.1951H20.0728ZM20.0728 12.9756V13.7561H19.2923V12.9756H20.0728ZM20.0728 10.6341V11.4146H19.2923V10.6341H20.0728ZM20.0728 9.85366V10.6341H19.2923V9.85366H20.0728ZM20.0728 9.07317V9.85366H19.2923V9.07317H20.0728ZM20.0728 8.29268V9.07317H19.2923V8.29268H20.0728ZM20.0728 7.5122V8.29268H19.2923V7.5122H20.0728ZM20.0728 6.73171V7.5122H19.2923V6.73171H20.0728ZM20.0728 5.95122V6.73171H19.2923V5.95122H20.0728ZM20.0728 5.17073V5.95122H19.2923V5.17073H20.0728ZM20.0728 4.39024V5.17073H19.2923V4.39024H20.0728ZM20.0728 3.60976V4.39024H19.2923V3.60976H20.0728ZM19.2923 5.17073V5.95122H18.5118V5.17073H19.2923ZM20.0728 2.82927V3.60976H19.2923V2.82927H20.0728ZM20.0728 2.04878V2.82927H19.2923V2.04878H20.0728ZM20.0728 1.26829V2.04878H19.2923V1.26829H20.0728ZM20.0728 0.487804V1.26829H19.2923V0.487804H20.0728ZM18.5118 0.487804V1.26829H17.7313V0.487804H18.5118ZM17.7313 0.487804V1.26829H16.9508V0.487804H17.7313ZM17.7313 1.26829V2.04878H16.9508V1.26829H17.7313ZM18.5118 1.26829V2.04878H17.7313V1.26829H18.5118ZM18.5118 2.04878V2.82927H17.7313V2.04878H18.5118ZM18.5118 2.82927V3.60976H17.7313V2.82927H18.5118ZM18.5118 3.60976V4.39024H17.7313V3.60976H18.5118ZM18.5118 4.39024V5.17073H17.7313V4.39024H18.5118ZM18.5118 5.17073V5.95122H17.7313V5.17073H18.5118ZM18.5118 5.95122V6.73171H17.7313V5.95122H18.5118ZM17.7313 6.73171V7.5122H16.9508V6.73171H17.7313ZM17.7313 7.5122V8.29268H16.9508V7.5122H17.7313ZM17.7313 5.95122V6.73171H16.9508V5.95122H17.7313ZM17.7313 5.17073V5.95122H16.9508V5.17073H17.7313ZM17.7313 4.39024V5.17073H16.9508V4.39024H17.7313ZM17.7313 3.60976V4.39024H16.9508V3.60976H17.7313ZM17.7313 2.82927V3.60976H16.9508V2.82927H17.7313ZM17.7313 2.04878V2.82927H16.9508V2.04878H17.7313ZM18.5118 6.73171V7.5122H17.7313V6.73171H18.5118ZM18.5118 7.5122V8.29268H17.7313V7.5122H18.5118ZM18.5118 8.29268V9.07317H17.7313V8.29268H18.5118ZM18.5118 9.07317V9.85366H17.7313V9.07317H18.5118ZM18.5118 9.85366V10.6341H17.7313V9.85366H18.5118ZM18.5118 10.6341V11.4146H17.7313V10.6341H18.5118ZM18.5118 11.4146V12.1951H17.7313V11.4146H18.5118ZM18.5118 12.1951V12.9756H17.7313V12.1951H18.5118ZM18.5118 12.9756V13.7561H17.7313V12.9756H18.5118ZM19.2923 12.1951V12.9756H18.5118V12.1951H19.2923ZM19.2923 11.4146V12.1951H18.5118V11.4146H19.2923ZM20.8533 9.85366V10.6341H20.0728V9.85366H20.8533ZM21.6338 9.85366V10.6341H20.8533V9.85366H21.6338ZM21.6338 10.6341V11.4146H20.8533V10.6341H21.6338ZM20.8533 10.6341V11.4146H20.0728V10.6341H20.8533ZM20.8533 8.29268V9.07317H20.0728V8.29268H20.8533ZM21.6338 8.29268V9.07317H20.8533V8.29268H21.6338ZM20.8533 11.4146V12.1951H20.0728V11.4146H20.8533ZM21.6338 11.4146V12.1951H20.8533V11.4146H21.6338ZM21.6338 9.07317V9.85366H20.8533V9.07317H21.6338ZM20.8533 9.07317V9.85366H20.0728V9.07317H20.8533ZM20.8533 0.487804V1.26829H20.0728V0.487804H20.8533ZM21.6338 0.487804V1.26829H20.8533V0.487804H21.6338ZM21.6338 1.26829V2.04878H20.8533V1.26829H21.6338ZM20.8533 1.26829V2.04878H20.0728V1.26829H20.8533ZM20.8533 2.04878V2.82927H20.0728V2.04878H20.8533ZM21.6338 2.04878V2.82927H20.8533V2.04878H21.6338ZM21.6338 2.82927V3.60976H20.8533V2.82927H21.6338ZM20.8533 2.82927V3.60976H20.0728V2.82927H20.8533ZM20.8533 3.60976V4.39024H20.0728V3.60976H20.8533ZM21.6338 3.60976V4.39024H20.8533V3.60976H21.6338ZM20.8533 19.2195V20H20.0728V19.2195H20.8533ZM21.6338 19.2195V20H20.8533V19.2195H21.6338ZM21.6338 18.439V19.2195H20.8533V18.439H21.6338ZM21.6338 17.6585V18.439H20.8533V17.6585H21.6338ZM21.6338 16.878V17.6585H20.8533V16.878H21.6338ZM21.6338 16.0976V16.878H20.8533V16.0976H21.6338ZM20.8533 16.0976V16.878H20.0728V16.0976H20.8533ZM20.8533 16.878V17.6585H20.0728V16.878H20.8533ZM20.8533 17.6585V18.439H20.0728V17.6585H20.8533ZM20.8533 18.439V19.2195H20.0728V18.439H20.8533ZM22.4143 8.29268V9.07317H21.6338V8.29268H22.4143ZM23.1947 8.29268V9.07317H22.4143V8.29268H23.1947ZM23.9752 8.29268V9.07317H23.1947V8.29268H23.9752ZM23.9752 3.60976V4.39024H23.1947V3.60976H23.9752ZM23.1947 3.60976V4.39024H22.4143V3.60976H23.1947ZM22.4143 3.60976V4.39024H21.6338V3.60976H22.4143ZM22.4143 0.487804V1.26829H21.6338V0.487804H22.4143ZM23.1947 0.487804V1.26829H22.4143V0.487804H23.1947ZM23.9752 0.487804V1.26829H23.1947V0.487804H23.9752ZM23.9752 2.82927V3.60976H23.1947V2.82927H23.9752ZM23.9752 2.04878V2.82927H23.1947V2.04878H23.9752ZM23.1947 2.04878V2.82927H22.4143V2.04878H23.1947ZM22.4143 2.04878V2.82927H21.6338V2.04878H22.4143ZM22.4143 1.26829V2.04878H21.6338V1.26829H22.4143ZM23.1947 1.26829V2.04878H22.4143V1.26829H23.1947ZM23.9752 1.26829V2.04878H23.1947V1.26829H23.9752ZM22.4143 2.82927V3.60976H21.6338V2.82927H22.4143ZM23.1947 2.82927V3.60976H22.4143V2.82927H23.1947ZM23.9752 9.85366V10.6341H23.1947V9.85366H23.9752ZM23.1947 9.85366V10.6341H22.4143V9.85366H23.1947ZM22.4143 9.85366V10.6341H21.6338V9.85366H22.4143ZM22.4143 9.07317V9.85366H21.6338V9.07317H22.4143ZM23.1947 9.07317V9.85366H22.4143V9.07317H23.1947ZM23.9752 9.07317V9.85366H23.1947V9.07317H23.9752ZM22.4143 10.6341V11.4146H21.6338V10.6341H22.4143ZM23.1947 10.6341V11.4146H22.4143V10.6341H23.1947ZM23.9752 10.6341V11.4146H23.1947V10.6341H23.9752ZM23.9752 11.4146V12.1951H23.1947V11.4146H23.9752ZM23.1947 11.4146V12.1951H22.4143V11.4146H23.1947ZM22.4143 11.4146V12.1951H21.6338V11.4146H22.4143ZM22.4143 16.0976V16.878H21.6338V16.0976H22.4143ZM23.1947 16.0976V16.878H22.4143V16.0976H23.1947ZM23.9752 16.0976V16.878H23.1947V16.0976H23.9752ZM23.9752 18.439V19.2195H23.1947V18.439H23.9752ZM23.1947 19.2195V20H22.4143V19.2195H23.1947ZM22.4143 19.2195V20H21.6338V19.2195H22.4143ZM23.9752 19.2195V20H23.1947V19.2195H23.9752ZM23.1947 18.439V19.2195H22.4143V18.439H23.1947ZM22.4143 18.439V19.2195H21.6338V18.439H22.4143ZM22.4143 17.6585V18.439H21.6338V17.6585H22.4143ZM23.1947 17.6585V18.439H22.4143V17.6585H23.1947ZM23.9752 17.6585V18.439H23.1947V17.6585H23.9752ZM23.9752 16.878V17.6585H23.1947V16.878H23.9752ZM23.1947 16.878V17.6585H22.4143V16.878H23.1947ZM22.4143 16.878V17.6585H21.6338V16.878H22.4143ZM28.6582 3.60976V4.39024H27.8777V3.60976H28.6582ZM28.6582 16.0976V16.878H27.8777V16.0976H28.6582ZM24.7557 0.487804V1.26829H23.9752V0.487804H24.7557ZM25.5362 0.487804V1.26829H24.7557V0.487804H25.5362ZM26.3167 0.487804V1.26829H25.5362V0.487804H26.3167ZM27.0972 0.487804V1.26829H26.3167V0.487804H27.0972ZM27.8777 0.487804V1.26829H27.0972V0.487804H27.8777ZM27.8777 1.26829V2.04878H27.0972V1.26829H27.8777ZM28.6582 1.26829V2.04878H27.8777V1.26829H28.6582ZM28.6582 2.04878V2.82927H27.8777V2.04878H28.6582ZM28.6582 0.487804V1.26829H27.8777V0.487804H28.6582ZM28.6582 2.82927V3.60976H27.8777V2.82927H28.6582ZM27.8777 2.82927V3.60976H27.0972V2.82927H27.8777ZM27.0972 2.82927V3.60976H26.3167V2.82927H27.0972ZM26.3167 2.82927V3.60976H25.5362V2.82927H26.3167ZM25.5362 2.82927V3.60976H24.7557V2.82927H25.5362ZM24.7557 2.82927V3.60976H23.9752V2.82927H24.7557ZM24.7557 2.04878V2.82927H23.9752V2.04878H24.7557ZM24.7557 1.26829V2.04878H23.9752V1.26829H24.7557ZM25.5362 1.26829V2.04878H24.7557V1.26829H25.5362ZM26.3167 1.26829V2.04878H25.5362V1.26829H26.3167ZM27.0972 1.26829V2.04878H26.3167V1.26829H27.0972ZM27.0972 2.04878V2.82927H26.3167V2.04878H27.0972ZM27.8777 2.04878V2.82927H27.0972V2.04878H27.8777ZM26.3167 2.04878V2.82927H25.5362V2.04878H26.3167ZM25.5362 2.04878V2.82927H24.7557V2.04878H25.5362ZM24.7557 3.60976V4.39024H23.9752V3.60976H24.7557ZM25.5362 3.60976V4.39024H24.7557V3.60976H25.5362ZM26.3167 3.60976V4.39024H25.5362V3.60976H26.3167ZM27.0972 3.60976V4.39024H26.3167V3.60976H27.0972ZM27.8777 3.60976V4.39024H27.0972V3.60976H27.8777ZM28.6582 16.878V17.6585H27.8777V16.878H28.6582ZM27.8777 16.878V17.6585H27.0972V16.878H27.8777ZM27.8777 17.6585V18.439H27.0972V17.6585H27.8777ZM27.8777 18.439V19.2195H27.0972V18.439H27.8777ZM27.8777 19.2195V20H27.0972V19.2195H27.8777ZM28.6582 18.439V19.2195H27.8777V18.439H28.6582ZM28.6582 17.6585V18.439H27.8777V17.6585H28.6582ZM28.6582 19.2195V20H27.8777V19.2195H28.6582ZM24.7557 19.2195V20H23.9752V19.2195H24.7557ZM25.5362 19.2195V20H24.7557V19.2195H25.5362ZM26.3167 19.2195V20H25.5362V19.2195H26.3167ZM26.3167 18.439V19.2195H25.5362V18.439H26.3167ZM27.0972 19.2195V20H26.3167V19.2195H27.0972ZM27.0972 18.439V19.2195H26.3167V18.439H27.0972ZM27.0972 17.6585V18.439H26.3167V17.6585H27.0972ZM27.0972 16.878V17.6585H26.3167V16.878H27.0972ZM27.0972 16.0976V16.878H26.3167V16.0976H27.0972ZM27.8777 16.0976V16.878H27.0972V16.0976H27.8777ZM24.7557 16.0976V16.878H23.9752V16.0976H24.7557ZM25.5362 16.0976V16.878H24.7557V16.0976H25.5362ZM26.3167 16.0976V16.878H25.5362V16.0976H26.3167ZM26.3167 16.878V17.6585H25.5362V16.878H26.3167ZM26.3167 17.6585V18.439H25.5362V17.6585H26.3167ZM25.5362 17.6585V18.439H24.7557V17.6585H25.5362ZM25.5362 16.878V17.6585H24.7557V16.878H25.5362ZM24.7557 16.878V17.6585H23.9752V16.878H24.7557ZM24.7557 17.6585V18.439H23.9752V17.6585H24.7557ZM24.7557 18.439V19.2195H23.9752V18.439H24.7557ZM25.5362 18.439V19.2195H24.7557V18.439H25.5362ZM24.7557 8.29268V9.07317H23.9752V8.29268H24.7557ZM24.7557 9.07317V9.85366H23.9752V9.07317H24.7557ZM24.7557 9.85366V10.6341H23.9752V9.85366H24.7557ZM24.7557 10.6341V11.4146H23.9752V10.6341H24.7557ZM25.5362 10.6341V11.4146H24.7557V10.6341H25.5362ZM25.5362 11.4146V12.1951H24.7557V11.4146H25.5362ZM24.7557 11.4146V12.1951H23.9752V11.4146H24.7557ZM25.5362 8.29268V9.07317H24.7557V8.29268H25.5362ZM25.5362 9.07317V9.85366H24.7557V9.07317H25.5362ZM25.5362 9.85366V10.6341H24.7557V9.85366H25.5362ZM26.3167 9.85366V10.6341H25.5362V9.85366H26.3167ZM27.0972 9.85366V10.6341H26.3167V9.85366H27.0972ZM27.0972 9.07317V9.85366H26.3167V9.07317H27.0972ZM27.0972 8.29268V9.07317H26.3167V8.29268H27.0972ZM26.3167 8.29268V9.07317H25.5362V8.29268H26.3167ZM26.3167 9.07317V9.85366H25.5362V9.07317H26.3167ZM26.3167 10.6341V11.4146H25.5362V10.6341H26.3167ZM26.3167 11.4146V12.1951H25.5362V11.4146H26.3167ZM27.0972 11.4146V12.1951H26.3167V11.4146H27.0972ZM27.0972 10.6341V11.4146H26.3167V10.6341H27.0972ZM32.5758 16.0976V16.878H31.7954V16.0976H32.5758ZM32.5758 15.3171V16.0976H31.7954V15.3171H32.5758ZM32.5758 14.5366V15.3171H31.7954V14.5366H32.5758ZM32.5758 13.7561V14.5366H31.7954V13.7561H32.5758ZM32.5758 12.9756V13.7561H31.7954V12.9756H32.5758ZM32.5758 12.1951V12.9756H31.7954V12.1951H32.5758ZM32.5758 11.4146V12.1951H31.7954V11.4146H32.5758ZM32.5758 10.6341V11.4146H31.7954V10.6341H32.5758ZM32.5758 9.85366V10.6341H31.7954V9.85366H32.5758ZM32.5758 9.07317V9.85366H31.7954V9.07317H32.5758ZM32.5758 8.29268V9.07317H31.7954V8.29268H32.5758ZM33.3563 8.29268V9.07317H32.5758V8.29268H33.3563ZM33.3563 9.07317V9.85366H32.5758V9.07317H33.3563ZM33.3563 9.85366V10.6341H32.5758V9.85366H33.3563ZM33.3563 10.6341V11.4146H32.5758V10.6341H33.3563ZM33.3563 11.4146V12.1951H32.5758V11.4146H33.3563ZM33.3563 12.1951V12.9756H32.5758V12.1951H33.3563ZM33.3563 12.9756V13.7561H32.5758V12.9756H33.3563ZM34.1368 13.7561V14.5366H33.3563V13.7561H34.1368ZM34.1368 14.5366V15.3171H33.3563V14.5366H34.1368ZM34.1368 15.3171V16.0976H33.3563V15.3171H34.1368ZM34.1368 16.0976V16.878H33.3563V16.0976H34.1368ZM34.1368 16.878V17.6585H33.3563V16.878H34.1368ZM34.1368 17.6585V18.439H33.3563V17.6585H34.1368ZM34.1368 18.439V19.2195H33.3563V18.439H34.1368ZM35.6978 19.2195V20H34.9173V19.2195H35.6978ZM35.6978 18.439V19.2195H34.9173V18.439H35.6978ZM35.6978 17.6585V18.439H34.9173V17.6585H35.6978ZM35.6978 16.878V17.6585H34.9173V16.878H35.6978ZM35.6978 16.0976V16.878H34.9173V16.0976H35.6978ZM35.6978 15.3171V16.0976H34.9173V15.3171H35.6978ZM35.6978 14.5366V15.3171H34.9173V14.5366H35.6978ZM35.6978 13.7561V14.5366H34.9173V13.7561H35.6978ZM34.9173 13.7561V14.5366H34.1368V13.7561H34.9173ZM34.9173 12.9756V13.7561H34.1368V12.9756H34.9173ZM34.9173 14.5366V15.3171H34.1368V14.5366H34.9173ZM34.9173 15.3171V16.0976H34.1368V15.3171H34.9173ZM34.9173 16.0976V16.878H34.1368V16.0976H34.9173ZM34.9173 16.878V17.6585H34.1368V16.878H34.9173ZM34.9173 17.6585V18.439H34.1368V17.6585H34.9173ZM34.9173 18.439V19.2195H34.1368V18.439H34.9173ZM33.3563 17.6585V18.439H32.5758V17.6585H33.3563ZM33.3563 16.878V17.6585H32.5758V16.878H33.3563ZM33.3563 16.0976V16.878H32.5758V16.0976H33.3563ZM33.3563 15.3171V16.0976H32.5758V15.3171H33.3563ZM33.3563 14.5366V15.3171H32.5758V14.5366H33.3563ZM33.3563 13.7561V14.5366H32.5758V13.7561H33.3563ZM32.5758 7.5122V8.29268H31.7954V7.5122H32.5758ZM34.9173 7.5122V8.29268H34.1368V7.5122H34.9173ZM34.9173 8.29268V9.07317H34.1368V8.29268H34.9173ZM34.9173 9.07317V9.85366H34.1368V9.07317H34.9173ZM34.9173 9.85366V10.6341H34.1368V9.85366H34.9173ZM34.9173 10.6341V11.4146H34.1368V10.6341H34.9173ZM35.6978 11.4146V12.1951H34.9173V11.4146H35.6978ZM35.6978 12.1951V12.9756H34.9173V12.1951H35.6978ZM35.6978 12.9756V13.7561H34.9173V12.9756H35.6978ZM35.6978 10.6341V11.4146H34.9173V10.6341H35.6978ZM35.6978 9.85366V10.6341H34.9173V9.85366H35.6978ZM35.6978 9.07317V9.85366H34.9173V9.07317H35.6978ZM35.6978 8.29268V9.07317H34.9173V8.29268H35.6978ZM35.6978 7.5122V8.29268H34.9173V7.5122H35.6978ZM33.3563 7.5122V8.29268H32.5758V7.5122H33.3563ZM34.1368 7.5122V8.29268H33.3563V7.5122H34.1368ZM34.1368 8.29268V9.07317H33.3563V8.29268H34.1368ZM34.1368 9.07317V9.85366H33.3563V9.07317H34.1368ZM34.1368 9.85366V10.6341H33.3563V9.85366H34.1368ZM34.1368 10.6341V11.4146H33.3563V10.6341H34.1368ZM34.1368 11.4146V12.1951H33.3563V11.4146H34.1368ZM34.1368 12.1951V12.9756H33.3563V12.1951H34.1368ZM34.1368 12.9756V13.7561H33.3563V12.9756H34.1368ZM34.9173 12.1951V12.9756H34.1368V12.1951H34.9173ZM34.9173 11.4146V12.1951H34.1368V11.4146H34.9173ZM41.9417 19.2195V20H41.1612V19.2195H41.9417ZM41.9417 18.439V19.2195H41.1612V18.439H41.9417ZM41.9417 17.6585V18.439H41.1612V17.6585H41.9417ZM41.9417 16.878V17.6585H41.1612V16.878H41.9417ZM41.9417 16.0976V16.878H41.1612V16.0976H41.9417ZM41.9417 15.3171V16.0976H41.1612V15.3171H41.9417ZM41.9417 14.5366V15.3171H41.1612V14.5366H41.9417ZM43.5027 14.5366V15.3171H42.7222V14.5366H43.5027ZM43.5027 15.3171V16.0976H42.7222V15.3171H43.5027ZM43.5027 16.0976V16.878H42.7222V16.0976H43.5027ZM43.5027 16.878V17.6585H42.7222V16.878H43.5027ZM43.5027 17.6585V18.439H42.7222V17.6585H43.5027ZM43.5027 18.439V19.2195H42.7222V18.439H43.5027ZM45.0636 16.0976V16.878H44.2832V16.0976H45.0636ZM45.0636 15.3171V16.0976H44.2832V15.3171H45.0636ZM45.0636 14.5366V15.3171H44.2832V14.5366H45.0636ZM44.2832 14.5366V15.3171H43.5027V14.5366H44.2832ZM44.2832 15.3171V16.0976H43.5027V15.3171H44.2832ZM44.2832 16.0976V16.878H43.5027V16.0976H44.2832ZM44.2832 16.878V17.6585H43.5027V16.878H44.2832ZM44.2832 17.6585V18.439H43.5027V17.6585H44.2832ZM42.7222 18.439V19.2195H41.9417V18.439H42.7222ZM42.7222 17.6585V18.439H41.9417V17.6585H42.7222ZM42.7222 16.878V17.6585H41.9417V16.878H42.7222ZM42.7222 16.0976V16.878H41.9417V16.0976H42.7222ZM42.7222 15.3171V16.0976H41.9417V15.3171H42.7222ZM42.7222 14.5366V15.3171H41.9417V14.5366H42.7222ZM36.4783 19.2195V20H35.6978V19.2195H36.4783ZM37.2588 19.2195V20H36.4783V19.2195H37.2588ZM38.0393 19.2195V20H37.2588V19.2195H38.0393ZM38.8197 19.2195V20H38.0393V19.2195H38.8197ZM40.3807 19.2195V20H39.6002V19.2195H40.3807ZM41.1612 19.2195V20H40.3807V19.2195H41.1612ZM41.1612 18.439V19.2195H40.3807V18.439H41.1612ZM40.3807 18.439V19.2195H39.6002V18.439H40.3807ZM38.8197 18.439V19.2195H38.0393V18.439H38.8197ZM38.0393 18.439V19.2195H37.2588V18.439H38.0393ZM37.2588 18.439V19.2195H36.4783V18.439H37.2588ZM36.4783 18.439V19.2195H35.6978V18.439H36.4783ZM36.4783 17.6585V18.439H35.6978V17.6585H36.4783ZM37.2588 17.6585V18.439H36.4783V17.6585H37.2588ZM38.0393 17.6585V18.439H37.2588V17.6585H38.0393ZM38.8197 17.6585V18.439H38.0393V17.6585H38.8197ZM40.3807 17.6585V18.439H39.6002V17.6585H40.3807ZM41.1612 17.6585V18.439H40.3807V17.6585H41.1612ZM41.1612 16.878V17.6585H40.3807V16.878H41.1612ZM40.3807 16.878V17.6585H39.6002V16.878H40.3807ZM38.8197 16.878V17.6585H38.0393V16.878H38.8197ZM38.0393 16.878V17.6585H37.2588V16.878H38.0393ZM37.2588 16.878V17.6585H36.4783V16.878H37.2588ZM36.4783 16.878V17.6585H35.6978V16.878H36.4783ZM36.4783 16.0976V16.878H35.6978V16.0976H36.4783ZM41.1612 16.0976V16.878H40.3807V16.0976H41.1612ZM44.2832 4.39024V3.60976H45.0636V4.39024H44.2832ZM44.2832 5.17073V4.39024H45.0636V5.17073H44.2832ZM44.2832 5.95122V5.17073H45.0636V5.95122H44.2832ZM42.7222 5.95122V5.17073H43.5027V5.95122H42.7222ZM42.7222 5.17073V4.39024H43.5027V5.17073H42.7222ZM42.7222 4.39024V3.60976H43.5027V4.39024H42.7222ZM42.7222 3.60976V2.82927H43.5027V3.60976H42.7222ZM42.7222 2.82927V2.04878H43.5027V2.82927H42.7222ZM42.7222 2.04878V1.26829H43.5027V2.04878H42.7222ZM41.1612 1.26829V0.487804H41.9417V1.26829H41.1612ZM41.1612 2.04878V1.26829H41.9417V2.04878H41.1612ZM41.1612 2.82927V2.04878H41.9417V2.82927H41.1612ZM41.1612 3.60976V2.82927H41.9417V3.60976H41.1612ZM41.1612 4.39024V3.60976H41.9417V4.39024H41.1612ZM41.1612 5.17073V4.39024H41.9417V5.17073H41.1612ZM41.1612 5.95122V5.17073H41.9417V5.95122H41.1612ZM41.9417 5.95122V5.17073H42.7222V5.95122H41.9417ZM41.9417 5.17073V4.39024H42.7222V5.17073H41.9417ZM41.9417 4.39024V3.60976H42.7222V4.39024H41.9417ZM41.9417 3.60976V2.82927H42.7222V3.60976H41.9417ZM41.9417 2.82927V2.04878H42.7222V2.82927H41.9417ZM41.9417 2.04878V1.26829H42.7222V2.04878H41.9417ZM43.5027 2.82927V2.04878H44.2832V2.82927H43.5027ZM43.5027 3.60976V2.82927H44.2832V3.60976H43.5027ZM43.5027 4.39024V3.60976H44.2832V4.39024H43.5027ZM43.5027 5.17073V4.39024H44.2832V5.17073H43.5027ZM43.5027 5.95122V5.17073H44.2832V5.95122H43.5027ZM34.9173 1.26829V0.487804H35.6978V1.26829H34.9173ZM34.9173 2.04878V1.26829H35.6978V2.04878H34.9173ZM34.9173 2.82927V2.04878H35.6978V2.82927H34.9173ZM34.9173 3.60976V2.82927H35.6978V3.60976H34.9173ZM34.9173 4.39024V3.60976H35.6978V4.39024H34.9173ZM34.9173 5.17073V4.39024H35.6978V5.17073H34.9173ZM34.9173 5.95122V5.17073H35.6978V5.95122H34.9173ZM33.3563 5.95122V5.17073H34.1368V5.95122H33.3563ZM33.3563 5.17073V4.39024H34.1368V5.17073H33.3563ZM33.3563 4.39024V3.60976H34.1368V4.39024H33.3563ZM33.3563 3.60976V2.82927H34.1368V3.60976H33.3563ZM33.3563 2.82927V2.04878H34.1368V2.82927H33.3563ZM33.3563 2.04878V1.26829H34.1368V2.04878H33.3563ZM31.7954 4.39024V3.60976H32.5758V4.39024H31.7954ZM31.7954 5.17073V4.39024H32.5758V5.17073H31.7954ZM31.7954 5.95122V5.17073H32.5758V5.95122H31.7954ZM32.5758 5.95122V5.17073H33.3563V5.95122H32.5758ZM32.5758 5.17073V4.39024H33.3563V5.17073H32.5758ZM32.5758 4.39024V3.60976H33.3563V4.39024H32.5758ZM32.5758 3.60976V2.82927H33.3563V3.60976H32.5758ZM32.5758 2.82927V2.04878H33.3563V2.82927H32.5758ZM34.1368 2.04878V1.26829H34.9173V2.04878H34.1368ZM34.1368 2.82927V2.04878H34.9173V2.82927H34.1368ZM34.1368 3.60976V2.82927H34.9173V3.60976H34.1368ZM34.1368 4.39024V3.60976H34.9173V4.39024H34.1368ZM34.1368 5.17073V4.39024H34.9173V5.17073H34.1368ZM34.1368 5.95122V5.17073H34.9173V5.95122H34.1368ZM40.3807 1.26829V0.487804H41.1612V1.26829H40.3807ZM39.6002 1.26829V0.487804H40.3807V1.26829H39.6002ZM38.0393 1.26829V0.487804H38.8197V1.26829H38.0393ZM37.2588 1.26829V0.487804H38.0393V1.26829H37.2588ZM36.4783 1.26829V0.487804H37.2588V1.26829H36.4783ZM35.6978 1.26829V0.487804H36.4783V1.26829H35.6978ZM35.6978 2.04878V1.26829H36.4783V2.04878H35.6978ZM36.4783 2.04878V1.26829H37.2588V2.04878H36.4783ZM37.2588 2.04878V1.26829H38.0393V2.04878H37.2588ZM38.0393 2.04878V1.26829H38.8197V2.04878H38.0393ZM39.6002 2.04878V1.26829H40.3807V2.04878H39.6002ZM40.3807 2.04878V1.26829H41.1612V2.04878H40.3807ZM40.3807 2.82927V2.04878H41.1612V2.82927H40.3807ZM39.6002 2.82927V2.04878H40.3807V2.82927H39.6002ZM38.0393 2.82927V2.04878H38.8197V2.82927H38.0393ZM37.2588 2.82927V2.04878H38.0393V2.82927H37.2588ZM36.4783 2.82927V2.04878H37.2588V2.82927H36.4783ZM35.6978 2.82927V2.04878H36.4783V2.82927H35.6978ZM35.6978 3.60976V2.82927H36.4783V3.60976H35.6978ZM36.4783 3.60976V2.82927H37.2588V3.60976H36.4783ZM37.2588 3.60976V2.82927H38.0393V3.60976H37.2588ZM38.0393 3.60976V2.82927H38.8197V3.60976H38.0393ZM39.6002 3.60976V2.82927H40.3807V3.60976H39.6002ZM40.3807 3.60976V2.82927H41.1612V3.60976H40.3807ZM40.3807 4.39024V3.60976H41.1612V4.39024H40.3807ZM35.6978 4.39024V3.60976H36.4783V4.39024H35.6978ZM32.5758 6.73171V7.5122H31.7954V6.73171H32.5758ZM33.3563 6.73171V7.5122H32.5758V6.73171H33.3563ZM32.5758 5.95122V6.73171H31.7954V5.95122H32.5758ZM34.9173 5.95122V6.73171H34.1368V5.95122H34.9173ZM34.9173 6.73171V7.5122H34.1368V6.73171H34.9173ZM35.6978 6.73171V7.5122H34.9173V6.73171H35.6978ZM35.6978 5.95122V6.73171H34.9173V5.95122H35.6978ZM33.3563 5.95122V6.73171H32.5758V5.95122H33.3563ZM34.1368 5.95122V6.73171H33.3563V5.95122H34.1368ZM34.1368 6.73171V7.5122H33.3563V6.73171H34.1368ZM38.8197 9.07317V9.85366H38.0393V9.07317H38.8197ZM38.8197 9.85366V10.6341H38.0393V9.85366H38.8197ZM40.3807 9.85366V10.6341H39.6002V9.85366H40.3807ZM41.1612 9.85366V10.6341H40.3807V9.85366H41.1612ZM41.9417 9.85366V10.6341H41.1612V9.85366H41.9417ZM42.7222 9.85366V10.6341H41.9417V9.85366H42.7222ZM43.5027 9.85366V10.6341H42.7222V9.85366H43.5027ZM44.2832 9.85366V10.6341H43.5027V9.85366H44.2832ZM45.0636 9.07317V9.85366H44.2832V9.07317H45.0636ZM44.2832 9.07317V9.85366H43.5027V9.07317H44.2832ZM43.5027 9.07317V9.85366H42.7222V9.07317H43.5027ZM42.7222 9.07317V9.85366H41.9417V9.07317H42.7222ZM41.9417 9.07317V9.85366H41.1612V9.07317H41.9417ZM41.1612 9.07317V9.85366H40.3807V9.07317H41.1612ZM40.3807 9.07317V9.85366H39.6002V9.07317H40.3807ZM45.0636 9.85366V10.6341H44.2832V9.85366H45.0636ZM45.0636 10.6341V11.4146H44.2832V10.6341H45.0636ZM45.0636 11.4146V12.1951H44.2832V11.4146H45.0636ZM45.0636 12.1951V12.9756H44.2832V12.1951H45.0636ZM45.0636 12.9756V13.7561H44.2832V12.9756H45.0636ZM45.0636 13.7561V14.5366H44.2832V13.7561H45.0636ZM44.2832 13.7561V14.5366H43.5027V13.7561H44.2832ZM43.5027 13.7561V14.5366H42.7222V13.7561H43.5027ZM42.7222 13.7561V14.5366H41.9417V13.7561H42.7222ZM41.9417 13.7561V14.5366H41.1612V13.7561H41.9417ZM41.9417 12.9756V13.7561H41.1612V12.9756H41.9417ZM42.7222 12.9756V13.7561H41.9417V12.9756H42.7222ZM43.5027 12.9756V13.7561H42.7222V12.9756H43.5027ZM44.2832 12.9756V13.7561H43.5027V12.9756H44.2832ZM44.2832 12.1951V12.9756H43.5027V12.1951H44.2832ZM43.5027 12.1951V12.9756H42.7222V12.1951H43.5027ZM42.7222 12.1951V12.9756H41.9417V12.1951H42.7222ZM41.9417 12.1951V12.9756H41.1612V12.1951H41.9417ZM38.8197 10.6341V11.4146H38.0393V10.6341H38.8197ZM38.8197 11.4146V12.1951H38.0393V11.4146H38.8197ZM40.3807 11.4146V12.1951H39.6002V11.4146H40.3807ZM41.1612 11.4146V12.1951H40.3807V11.4146H41.1612ZM41.9417 11.4146V12.1951H41.1612V11.4146H41.9417ZM42.7222 11.4146V12.1951H41.9417V11.4146H42.7222ZM43.5027 11.4146V12.1951H42.7222V11.4146H43.5027ZM44.2832 11.4146V12.1951H43.5027V11.4146H44.2832ZM44.2832 10.6341V11.4146H43.5027V10.6341H44.2832ZM43.5027 10.6341V11.4146H42.7222V10.6341H43.5027ZM42.7222 10.6341V11.4146H41.9417V10.6341H42.7222ZM41.9417 10.6341V11.4146H41.1612V10.6341H41.9417ZM41.1612 10.6341V11.4146H40.3807V10.6341H41.1612ZM40.3807 10.6341V11.4146H39.6002V10.6341H40.3807ZM37.2588 16.0976V16.878H36.4783V16.0976H37.2588ZM38.0393 16.0976V16.878H37.2588V16.0976H38.0393ZM38.8197 16.0976V16.878H38.0393V16.0976H38.8197ZM40.3807 16.0976V16.878H39.6002V16.0976H40.3807ZM41.1612 15.3171V16.0976H40.3807V15.3171H41.1612ZM36.4783 15.3171V16.0976H35.6978V15.3171H36.4783ZM37.2588 3.60976V4.39024H36.4783V3.60976H37.2588ZM38.0393 3.60976V4.39024H37.2588V3.60976H38.0393ZM38.8197 3.60976V4.39024H38.0393V3.60976H38.8197ZM40.3807 3.60976V4.39024H39.6002V3.60976H40.3807ZM36.4783 4.39024V5.17073H35.6978V4.39024H36.4783ZM41.1612 4.39024V5.17073H40.3807V4.39024H41.1612ZM41.9417 5.95122V6.73171H41.1612V5.95122H41.9417ZM42.7222 5.95122V6.73171H41.9417V5.95122H42.7222ZM43.5027 5.95122V6.73171H42.7222V5.95122H43.5027ZM44.2832 5.95122V6.73171H43.5027V5.95122H44.2832ZM45.0636 5.95122V6.73171H44.2832V5.95122H45.0636ZM38.8197 12.1951V12.9756H38.0393V12.1951H38.8197ZM40.3807 12.1951V12.9756H39.6002V12.1951H40.3807ZM41.1612 12.1951V12.9756H40.3807V12.1951H41.1612ZM39.6002 0.487804V1.26829H38.8197V0.487804H39.6002ZM39.6002 1.26829V2.04878H38.8197V1.26829H39.6002ZM39.6002 2.04878V2.82927H38.8197V2.04878H39.6002ZM39.6002 2.82927V3.60976H38.8197V2.82927H39.6002ZM39.6002 3.60976V4.39024H38.8197V3.60976H39.6002ZM39.6002 9.07317V9.85366H38.8197V9.07317H39.6002ZM39.6002 9.85366V10.6341H38.8197V9.85366H39.6002ZM39.6002 10.6341V11.4146H38.8197V10.6341H39.6002ZM39.6002 11.4146V12.1951H38.8197V11.4146H39.6002ZM39.6002 12.1951V12.9756H38.8197V12.1951H39.6002ZM39.6002 16.0976V16.878H38.8197V16.0976H39.6002ZM39.6002 16.878V17.6585H38.8197V16.878H39.6002ZM39.6002 17.6585V18.439H38.8197V17.6585H39.6002ZM39.6002 18.439V19.2195H38.8197V18.439H39.6002ZM39.6002 19.2195V20H38.8197V19.2195H39.6002ZM55.9821 16.0976V16.878H55.2016V16.0976H55.9821ZM55.9821 15.3171V16.0976H55.2016V15.3171H55.9821ZM55.9821 14.5366V15.3171H55.2016V14.5366H55.9821ZM55.9821 13.7561V14.5366H55.2016V13.7561H55.9821ZM55.9821 8.29268V9.07317H55.2016V8.29268H55.9821ZM56.7626 8.29268V9.07317H55.9821V8.29268H56.7626ZM56.7626 9.07317V9.85366H55.9821V9.07317H56.7626ZM56.7626 9.85366V10.6341H55.9821V9.85366H56.7626ZM57.5431 13.7561V14.5366H56.7626V13.7561H57.5431ZM57.5431 14.5366V15.3171H56.7626V14.5366H57.5431ZM57.5431 15.3171V16.0976H56.7626V15.3171H57.5431ZM57.5431 16.0976V16.878H56.7626V16.0976H57.5431ZM57.5431 16.878V17.6585H56.7626V16.878H57.5431ZM57.5431 17.6585V18.439H56.7626V17.6585H57.5431ZM57.5431 18.439V19.2195H56.7626V18.439H57.5431ZM59.104 19.2195V20H58.3236V19.2195H59.104ZM59.104 18.439V19.2195H58.3236V18.439H59.104ZM59.104 17.6585V18.439H58.3236V17.6585H59.104ZM59.104 16.878V17.6585H58.3236V16.878H59.104ZM59.104 16.0976V16.878H58.3236V16.0976H59.104ZM59.104 15.3171V16.0976H58.3236V15.3171H59.104ZM59.104 14.5366V15.3171H58.3236V14.5366H59.104ZM59.104 13.7561V14.5366H58.3236V13.7561H59.104ZM58.3236 13.7561V14.5366H57.5431V13.7561H58.3236ZM58.3236 14.5366V15.3171H57.5431V14.5366H58.3236ZM58.3236 15.3171V16.0976H57.5431V15.3171H58.3236ZM58.3236 16.0976V16.878H57.5431V16.0976H58.3236ZM58.3236 16.878V17.6585H57.5431V16.878H58.3236ZM58.3236 17.6585V18.439H57.5431V17.6585H58.3236ZM58.3236 18.439V19.2195H57.5431V18.439H58.3236ZM56.7626 17.6585V18.439H55.9821V17.6585H56.7626ZM56.7626 16.878V17.6585H55.9821V16.878H56.7626ZM56.7626 16.0976V16.878H55.9821V16.0976H56.7626ZM56.7626 15.3171V16.0976H55.9821V15.3171H56.7626ZM56.7626 14.5366V15.3171H55.9821V14.5366H56.7626ZM56.7626 13.7561V14.5366H55.9821V13.7561H56.7626ZM55.9821 7.5122V8.29268H55.2016V7.5122H55.9821ZM58.3236 7.5122V8.29268H57.5431V7.5122H58.3236ZM58.3236 8.29268V9.07317H57.5431V8.29268H58.3236ZM58.3236 9.07317V9.85366H57.5431V9.07317H58.3236ZM58.3236 9.85366V10.6341H57.5431V9.85366H58.3236ZM58.3236 10.6341V11.4146H57.5431V10.6341H58.3236ZM59.104 11.4146V12.1951H58.3236V11.4146H59.104ZM59.104 10.6341V11.4146H58.3236V10.6341H59.104ZM59.104 9.85366V10.6341H58.3236V9.85366H59.104ZM59.104 9.07317V9.85366H58.3236V9.07317H59.104ZM59.104 8.29268V9.07317H58.3236V8.29268H59.104ZM59.104 7.5122V8.29268H58.3236V7.5122H59.104ZM56.7626 7.5122V8.29268H55.9821V7.5122H56.7626ZM57.5431 7.5122V8.29268H56.7626V7.5122H57.5431ZM57.5431 8.29268V9.07317H56.7626V8.29268H57.5431ZM57.5431 9.07317V9.85366H56.7626V9.07317H57.5431ZM57.5431 9.85366V10.6341H56.7626V9.85366H57.5431ZM57.5431 10.6341V11.4146H56.7626V10.6341H57.5431ZM65.3479 19.2195V20H64.5675V19.2195H65.3479ZM65.3479 18.439V19.2195H64.5675V18.439H65.3479ZM65.3479 17.6585V18.439H64.5675V17.6585H65.3479ZM65.3479 16.878V17.6585H64.5675V16.878H65.3479ZM65.3479 16.0976V16.878H64.5675V16.0976H65.3479ZM65.3479 15.3171V16.0976H64.5675V15.3171H65.3479ZM65.3479 14.5366V15.3171H64.5675V14.5366H65.3479ZM65.3479 13.7561V14.5366H64.5675V13.7561H65.3479ZM65.3479 12.9756V13.7561H64.5675V12.9756H65.3479ZM65.3479 12.1951V12.9756H64.5675V12.1951H65.3479ZM65.3479 11.4146V12.1951H64.5675V11.4146H65.3479ZM65.3479 10.6341V11.4146H64.5675V10.6341H65.3479ZM65.3479 9.85366V10.6341H64.5675V9.85366H65.3479ZM65.3479 9.07317V9.85366H64.5675V9.07317H65.3479ZM65.3479 8.29268V9.07317H64.5675V8.29268H65.3479ZM66.1284 9.07317V9.85366H65.3479V9.07317H66.1284ZM66.1284 9.85366V10.6341H65.3479V9.85366H66.1284ZM66.1284 10.6341V11.4146H65.3479V10.6341H66.1284ZM66.1284 11.4146V12.1951H65.3479V11.4146H66.1284ZM66.1284 12.1951V12.9756H65.3479V12.1951H66.1284ZM66.1284 12.9756V13.7561H65.3479V12.9756H66.1284ZM66.9089 13.7561V14.5366H66.1284V13.7561H66.9089ZM66.9089 14.5366V15.3171H66.1284V14.5366H66.9089ZM66.9089 15.3171V16.0976H66.1284V15.3171H66.9089ZM66.9089 16.0976V16.878H66.1284V16.0976H66.9089ZM66.9089 16.878V17.6585H66.1284V16.878H66.9089ZM66.9089 17.6585V18.439H66.1284V17.6585H66.9089ZM66.9089 18.439V19.2195H66.1284V18.439H66.9089ZM68.4699 16.0976V16.878H67.6894V16.0976H68.4699ZM68.4699 15.3171V16.0976H67.6894V15.3171H68.4699ZM68.4699 14.5366V15.3171H67.6894V14.5366H68.4699ZM68.4699 13.7561V14.5366H67.6894V13.7561H68.4699ZM67.6894 13.7561V14.5366H66.9089V13.7561H67.6894ZM67.6894 12.9756V13.7561H66.9089V12.9756H67.6894ZM67.6894 14.5366V15.3171H66.9089V14.5366H67.6894ZM67.6894 15.3171V16.0976H66.9089V15.3171H67.6894ZM67.6894 16.0976V16.878H66.9089V16.0976H67.6894ZM67.6894 16.878V17.6585H66.9089V16.878H67.6894ZM67.6894 17.6585V18.439H66.9089V17.6585H67.6894ZM66.1284 18.439V19.2195H65.3479V18.439H66.1284ZM66.1284 17.6585V18.439H65.3479V17.6585H66.1284ZM66.1284 16.878V17.6585H65.3479V16.878H66.1284ZM66.1284 16.0976V16.878H65.3479V16.0976H66.1284ZM66.1284 15.3171V16.0976H65.3479V15.3171H66.1284ZM66.1284 14.5366V15.3171H65.3479V14.5366H66.1284ZM66.1284 13.7561V14.5366H65.3479V13.7561H66.1284ZM67.6894 10.6341V11.4146H66.9089V10.6341H67.6894ZM68.4699 11.4146V12.1951H67.6894V11.4146H68.4699ZM68.4699 12.1951V12.9756H67.6894V12.1951H68.4699ZM68.4699 12.9756V13.7561H67.6894V12.9756H68.4699ZM66.9089 9.07317V9.85366H66.1284V9.07317H66.9089ZM66.9089 9.85366V10.6341H66.1284V9.85366H66.9089ZM66.9089 10.6341V11.4146H66.1284V10.6341H66.9089ZM66.9089 11.4146V12.1951H66.1284V11.4146H66.9089ZM66.9089 12.1951V12.9756H66.1284V12.1951H66.9089ZM66.9089 12.9756V13.7561H66.1284V12.9756H66.9089ZM67.6894 12.1951V12.9756H66.9089V12.1951H67.6894ZM67.6894 11.4146V12.1951H66.9089V11.4146H67.6894ZM59.8845 19.2195V20H59.104V19.2195H59.8845ZM60.665 19.2195V20H59.8845V19.2195H60.665ZM61.4455 19.2195V20H60.665V19.2195H61.4455ZM63.0065 19.2195V20H62.226V19.2195H63.0065ZM63.787 19.2195V20H63.0065V19.2195H63.787ZM64.5675 19.2195V20H63.787V19.2195H64.5675ZM64.5675 18.439V19.2195H63.787V18.439H64.5675ZM63.787 18.439V19.2195H63.0065V18.439H63.787ZM63.0065 18.439V19.2195H62.226V18.439H63.0065ZM61.4455 18.439V19.2195H60.665V18.439H61.4455ZM60.665 18.439V19.2195H59.8845V18.439H60.665ZM59.8845 18.439V19.2195H59.104V18.439H59.8845ZM59.8845 17.6585V18.439H59.104V17.6585H59.8845ZM60.665 17.6585V18.439H59.8845V17.6585H60.665ZM61.4455 17.6585V18.439H60.665V17.6585H61.4455ZM63.0065 17.6585V18.439H62.226V17.6585H63.0065ZM63.787 17.6585V18.439H63.0065V17.6585H63.787ZM64.5675 17.6585V18.439H63.787V17.6585H64.5675ZM64.5675 16.878V17.6585H63.787V16.878H64.5675ZM63.787 16.878V17.6585H63.0065V16.878H63.787ZM63.0065 16.878V17.6585H62.226V16.878H63.0065ZM61.4455 16.878V17.6585H60.665V16.878H61.4455ZM60.665 16.878V17.6585H59.8845V16.878H60.665ZM59.8845 16.878V17.6585H59.104V16.878H59.8845ZM59.8845 16.0976V16.878H59.104V16.0976H59.8845ZM64.5675 16.0976V16.878H63.787V16.0976H64.5675ZM67.6894 4.39024V3.60976H68.4699V4.39024H67.6894ZM67.6894 5.17073V4.39024H68.4699V5.17073H67.6894ZM67.6894 5.95122V5.17073H68.4699V5.95122H67.6894ZM66.1284 5.95122V5.17073H66.9089V5.95122H66.1284ZM66.1284 5.17073V4.39024H66.9089V5.17073H66.1284ZM66.1284 4.39024V3.60976H66.9089V4.39024H66.1284ZM66.1284 3.60976V2.82927H66.9089V3.60976H66.1284ZM66.1284 2.82927V2.04878H66.9089V2.82927H66.1284ZM66.1284 2.04878V1.26829H66.9089V2.04878H66.1284ZM64.5675 1.26829V0.487804H65.3479V1.26829H64.5675ZM64.5675 2.04878V1.26829H65.3479V2.04878H64.5675ZM64.5675 2.82927V2.04878H65.3479V2.82927H64.5675ZM64.5675 3.60976V2.82927H65.3479V3.60976H64.5675ZM64.5675 4.39024V3.60976H65.3479V4.39024H64.5675ZM64.5675 5.17073V4.39024H65.3479V5.17073H64.5675ZM64.5675 5.95122V5.17073H65.3479V5.95122H64.5675ZM65.3479 5.95122V5.17073H66.1284V5.95122H65.3479ZM65.3479 5.17073V4.39024H66.1284V5.17073H65.3479ZM65.3479 4.39024V3.60976H66.1284V4.39024H65.3479ZM65.3479 3.60976V2.82927H66.1284V3.60976H65.3479ZM65.3479 2.82927V2.04878H66.1284V2.82927H65.3479ZM65.3479 2.04878V1.26829H66.1284V2.04878H65.3479ZM66.9089 2.82927V2.04878H67.6894V2.82927H66.9089ZM66.9089 3.60976V2.82927H67.6894V3.60976H66.9089ZM66.9089 4.39024V3.60976H67.6894V4.39024H66.9089ZM66.9089 5.17073V4.39024H67.6894V5.17073H66.9089ZM66.9089 5.95122V5.17073H67.6894V5.95122H66.9089ZM58.3236 1.26829V0.487804H59.104V1.26829H58.3236ZM58.3236 2.04878V1.26829H59.104V2.04878H58.3236ZM58.3236 2.82927V2.04878H59.104V2.82927H58.3236ZM58.3236 3.60976V2.82927H59.104V3.60976H58.3236ZM58.3236 4.39024V3.60976H59.104V4.39024H58.3236ZM58.3236 5.17073V4.39024H59.104V5.17073H58.3236ZM58.3236 5.95122V5.17073H59.104V5.95122H58.3236ZM56.7626 5.95122V5.17073H57.5431V5.95122H56.7626ZM56.7626 5.17073V4.39024H57.5431V5.17073H56.7626ZM56.7626 4.39024V3.60976H57.5431V4.39024H56.7626ZM56.7626 3.60976V2.82927H57.5431V3.60976H56.7626ZM56.7626 2.82927V2.04878H57.5431V2.82927H56.7626ZM56.7626 2.04878V1.26829H57.5431V2.04878H56.7626ZM55.2016 4.39024V3.60976H55.9821V4.39024H55.2016ZM55.2016 5.17073V4.39024H55.9821V5.17073H55.2016ZM55.2016 5.95122V5.17073H55.9821V5.95122H55.2016ZM55.9821 5.95122V5.17073H56.7626V5.95122H55.9821ZM55.9821 5.17073V4.39024H56.7626V5.17073H55.9821ZM55.9821 4.39024V3.60976H56.7626V4.39024H55.9821ZM55.9821 3.60976V2.82927H56.7626V3.60976H55.9821ZM55.9821 2.82927V2.04878H56.7626V2.82927H55.9821ZM57.5431 2.04878V1.26829H58.3236V2.04878H57.5431ZM57.5431 2.82927V2.04878H58.3236V2.82927H57.5431ZM57.5431 3.60976V2.82927H58.3236V3.60976H57.5431ZM57.5431 4.39024V3.60976H58.3236V4.39024H57.5431ZM57.5431 5.17073V4.39024H58.3236V5.17073H57.5431ZM57.5431 5.95122V5.17073H58.3236V5.95122H57.5431ZM63.787 1.26829V0.487804H64.5675V1.26829H63.787ZM63.0065 1.26829V0.487804H63.787V1.26829H63.0065ZM62.226 1.26829V0.487804H63.0065V1.26829H62.226ZM60.665 1.26829V0.487804H61.4455V1.26829H60.665ZM59.8845 1.26829V0.487804H60.665V1.26829H59.8845ZM59.104 1.26829V0.487804H59.8845V1.26829H59.104ZM59.104 2.04878V1.26829H59.8845V2.04878H59.104ZM59.8845 2.04878V1.26829H60.665V2.04878H59.8845ZM60.665 2.04878V1.26829H61.4455V2.04878H60.665ZM62.226 2.04878V1.26829H63.0065V2.04878H62.226ZM63.0065 2.04878V1.26829H63.787V2.04878H63.0065ZM63.787 2.04878V1.26829H64.5675V2.04878H63.787ZM63.787 2.82927V2.04878H64.5675V2.82927H63.787ZM63.0065 2.82927V2.04878H63.787V2.82927H63.0065ZM62.226 2.82927V2.04878H63.0065V2.82927H62.226ZM60.665 2.82927V2.04878H61.4455V2.82927H60.665ZM59.8845 2.82927V2.04878H60.665V2.82927H59.8845ZM59.104 2.82927V2.04878H59.8845V2.82927H59.104ZM59.104 3.60976V2.82927H59.8845V3.60976H59.104ZM59.8845 3.60976V2.82927H60.665V3.60976H59.8845ZM60.665 3.60976V2.82927H61.4455V3.60976H60.665ZM62.226 3.60976V2.82927H63.0065V3.60976H62.226ZM63.0065 3.60976V2.82927H63.787V3.60976H63.0065ZM63.787 3.60976V2.82927H64.5675V3.60976H63.787ZM63.787 4.39024V3.60976H64.5675V4.39024H63.787ZM59.104 4.39024V3.60976H59.8845V4.39024H59.104ZM55.9821 6.73171V7.5122H55.2016V6.73171H55.9821ZM56.7626 6.73171V7.5122H55.9821V6.73171H56.7626ZM55.9821 5.95122V6.73171H55.2016V5.95122H55.9821ZM58.3236 5.95122V6.73171H57.5431V5.95122H58.3236ZM58.3236 6.73171V7.5122H57.5431V6.73171H58.3236ZM59.104 6.73171V7.5122H58.3236V6.73171H59.104ZM59.104 5.95122V6.73171H58.3236V5.95122H59.104ZM56.7626 5.95122V6.73171H55.9821V5.95122H56.7626ZM57.5431 5.95122V6.73171H56.7626V5.95122H57.5431ZM57.5431 6.73171V7.5122H56.7626V6.73171H57.5431ZM60.665 16.0976V16.878H59.8845V16.0976H60.665ZM61.4455 16.0976V16.878H60.665V16.0976H61.4455ZM63.0065 16.0976V16.878H62.226V16.0976H63.0065ZM63.787 16.0976V16.878H63.0065V16.0976H63.787ZM64.5675 15.3171V16.0976H63.787V15.3171H64.5675ZM59.8845 15.3171V16.0976H59.104V15.3171H59.8845ZM60.665 3.60976V4.39024H59.8845V3.60976H60.665ZM61.4455 3.60976V4.39024H60.665V3.60976H61.4455ZM63.0065 3.60976V4.39024H62.226V3.60976H63.0065ZM63.787 3.60976V4.39024H63.0065V3.60976H63.787ZM64.5675 4.39024V5.17073H63.787V4.39024H64.5675ZM59.8845 4.39024V5.17073H59.104V4.39024H59.8845ZM61.4455 9.85366V10.6341H60.665V9.85366H61.4455ZM63.0065 9.85366V10.6341H62.226V9.85366H63.0065ZM63.787 9.85366V10.6341H63.0065V9.85366H63.787ZM64.5675 9.85366V10.6341H63.787V9.85366H64.5675ZM64.5675 10.6341V11.4146H63.787V10.6341H64.5675ZM63.787 10.6341V11.4146H63.0065V10.6341H63.787ZM63.0065 10.6341V11.4146H62.226V10.6341H63.0065ZM61.4455 10.6341V11.4146H60.665V10.6341H61.4455ZM61.4455 8.29268V9.07317H60.665V8.29268H61.4455ZM63.0065 8.29268V9.07317H62.226V8.29268H63.0065ZM63.787 8.29268V9.07317H63.0065V8.29268H63.787ZM64.5675 8.29268V9.07317H63.787V8.29268H64.5675ZM64.5675 9.07317V9.85366H63.787V9.07317H64.5675ZM63.787 9.07317V9.85366H63.0065V9.07317H63.787ZM63.0065 9.07317V9.85366H62.226V9.07317H63.0065ZM61.4455 9.07317V9.85366H60.665V9.07317H61.4455ZM61.4455 11.4146V12.1951H60.665V11.4146H61.4455ZM63.0065 11.4146V12.1951H62.226V11.4146H63.0065ZM63.787 11.4146V12.1951H63.0065V11.4146H63.787ZM64.5675 11.4146V12.1951H63.787V11.4146H64.5675ZM67.6894 9.85366V10.6341H66.9089V9.85366H67.6894ZM64.5675 12.1951V12.9756H63.787V12.1951H64.5675ZM59.8845 8.29268V9.07317H59.104V8.29268H59.8845ZM60.665 8.29268V9.07317H59.8845V8.29268H60.665ZM59.8845 7.5122V8.29268H59.104V7.5122H59.8845ZM60.665 9.07317V9.85366H59.8845V9.07317H60.665ZM60.665 9.85366V10.6341H59.8845V9.85366H60.665ZM60.665 10.6341V11.4146H59.8845V10.6341H60.665ZM60.665 11.4146V12.1951H59.8845V11.4146H60.665ZM59.8845 11.4146V12.1951H59.104V11.4146H59.8845ZM59.8845 10.6341V11.4146H59.104V10.6341H59.8845ZM59.8845 9.85366V10.6341H59.104V9.85366H59.8845ZM59.8845 9.07317V9.85366H59.104V9.07317H59.8845ZM62.226 0.487804V1.26829H61.4455V0.487804H62.226ZM62.226 1.26829V2.04878H61.4455V1.26829H62.226ZM62.226 2.04878V2.82927H61.4455V2.04878H62.226ZM62.226 2.82927V3.60976H61.4455V2.82927H62.226ZM62.226 3.60976V4.39024H61.4455V3.60976H62.226ZM62.226 8.29268V9.07317H61.4455V8.29268H62.226ZM62.226 9.07317V9.85366H61.4455V9.07317H62.226ZM62.226 9.85366V10.6341H61.4455V9.85366H62.226ZM62.226 10.6341V11.4146H61.4455V10.6341H62.226ZM62.226 11.4146V12.1951H61.4455V11.4146H62.226ZM62.226 16.0976V16.878H61.4455V16.0976H62.226ZM62.226 16.878V17.6585H61.4455V16.878H62.226ZM62.226 17.6585V18.439H61.4455V17.6585H62.226ZM62.226 18.439V19.2195H61.4455V18.439H62.226ZM62.226 19.2195V20H61.4455V19.2195H62.226Z" fill="white"/>
<path d="M48.9508 19.2195V20H48.1704V19.2195H48.9508ZM48.9508 18.439V19.2195H48.1704V18.439H48.9508ZM48.9508 17.6585V18.439H48.1704V17.6585H48.9508ZM48.9508 16.878V17.6585H48.1704V16.878H48.9508ZM48.9508 16.0976V16.878H48.1704V16.0976H48.9508ZM48.9508 15.3171V16.0976H48.1704V15.3171H48.9508ZM48.9508 14.5366V15.3171H48.1704V14.5366H48.9508ZM48.9508 13.7561V14.5366H48.1704V13.7561H48.9508ZM48.9508 12.9756V13.7561H48.1704V12.9756H48.9508ZM48.9508 12.1951V12.9756H48.1704V12.1951H48.9508ZM48.9508 11.4146V12.1951H48.1704V11.4146H48.9508ZM48.9508 10.6341V11.4146H48.1704V10.6341H48.9508ZM48.9508 9.85366V10.6341H48.1704V9.85366H48.9508ZM48.9508 9.07317V9.85366H48.1704V9.07317H48.9508ZM48.9508 8.29268V9.07317H48.1704V8.29268H48.9508ZM49.7313 8.29268V9.07317H48.9508V8.29268H49.7313ZM49.7313 9.07317V9.85366H48.9508V9.07317H49.7313ZM49.7313 9.85366V10.6341H48.9508V9.85366H49.7313ZM49.7313 10.6341V11.4146H48.9508V10.6341H49.7313ZM49.7313 11.4146V12.1951H48.9508V11.4146H49.7313ZM49.7313 12.1951V12.9756H48.9508V12.1951H49.7313ZM49.7313 12.9756V13.7561H48.9508V12.9756H49.7313ZM50.5118 13.7561V14.5366H49.7313V13.7561H50.5118ZM50.5118 14.5366V15.3171H49.7313V14.5366H50.5118ZM50.5118 15.3171V16.0976H49.7313V15.3171H50.5118ZM50.5118 16.0976V16.878H49.7313V16.0976H50.5118ZM50.5118 16.878V17.6585H49.7313V16.878H50.5118ZM50.5118 17.6585V18.439H49.7313V17.6585H50.5118ZM50.5118 18.439V19.2195H49.7313V18.439H50.5118ZM50.5118 19.2195V20H49.7313V19.2195H50.5118ZM51.2923 19.2195V20H50.5118V19.2195H51.2923ZM52.0728 19.2195V20H51.2923V19.2195H52.0728ZM52.0728 18.439V19.2195H51.2923V18.439H52.0728ZM52.0728 17.6585V18.439H51.2923V17.6585H52.0728ZM52.0728 16.878V17.6585H51.2923V16.878H52.0728ZM52.0728 16.0976V16.878H51.2923V16.0976H52.0728ZM52.0728 15.3171V16.0976H51.2923V15.3171H52.0728ZM52.0728 14.5366V15.3171H51.2923V14.5366H52.0728ZM52.0728 13.7561V14.5366H51.2923V13.7561H52.0728ZM51.2923 13.7561V14.5366H50.5118V13.7561H51.2923ZM51.2923 12.9756V13.7561H50.5118V12.9756H51.2923ZM51.2923 14.5366V15.3171H50.5118V14.5366H51.2923ZM51.2923 15.3171V16.0976H50.5118V15.3171H51.2923ZM51.2923 16.0976V16.878H50.5118V16.0976H51.2923ZM51.2923 16.878V17.6585H50.5118V16.878H51.2923ZM51.2923 17.6585V18.439H50.5118V17.6585H51.2923ZM51.2923 18.439V19.2195H50.5118V18.439H51.2923ZM49.7313 19.2195V20H48.9508V19.2195H49.7313ZM49.7313 18.439V19.2195H48.9508V18.439H49.7313ZM49.7313 17.6585V18.439H48.9508V17.6585H49.7313ZM49.7313 16.878V17.6585H48.9508V16.878H49.7313ZM49.7313 16.0976V16.878H48.9508V16.0976H49.7313ZM49.7313 15.3171V16.0976H48.9508V15.3171H49.7313ZM49.7313 14.5366V15.3171H48.9508V14.5366H49.7313ZM49.7313 13.7561V14.5366H48.9508V13.7561H49.7313ZM48.9508 0.487804V1.26829H48.1704V0.487804H48.9508ZM48.9508 1.26829V2.04878H48.1704V1.26829H48.9508ZM48.9508 2.04878V2.82927H48.1704V2.04878H48.9508ZM48.9508 2.82927V3.60976H48.1704V2.82927H48.9508ZM48.9508 3.60976V4.39024H48.1704V3.60976H48.9508ZM48.9508 4.39024V5.17073H48.1704V4.39024H48.9508ZM48.9508 5.17073V5.95122H48.1704V5.17073H48.9508ZM48.9508 5.95122V6.73171H48.1704V5.95122H48.9508ZM48.9508 6.73171V7.5122H48.1704V6.73171H48.9508ZM48.9508 7.5122V8.29268H48.1704V7.5122H48.9508ZM51.2923 0.487804V1.26829H50.5118V0.487804H51.2923ZM51.2923 1.26829V2.04878H50.5118V1.26829H51.2923ZM51.2923 2.04878V2.82927H50.5118V2.04878H51.2923ZM51.2923 2.82927V3.60976H50.5118V2.82927H51.2923ZM51.2923 3.60976V4.39024H50.5118V3.60976H51.2923ZM51.2923 4.39024V5.17073H50.5118V4.39024H51.2923ZM51.2923 5.95122V6.73171H50.5118V5.95122H51.2923ZM51.2923 6.73171V7.5122H50.5118V6.73171H51.2923ZM51.2923 7.5122V8.29268H50.5118V7.5122H51.2923ZM51.2923 8.29268V9.07317H50.5118V8.29268H51.2923ZM51.2923 9.07317V9.85366H50.5118V9.07317H51.2923ZM51.2923 9.85366V10.6341H50.5118V9.85366H51.2923ZM51.2923 10.6341V11.4146H50.5118V10.6341H51.2923ZM52.0728 11.4146V12.1951H51.2923V11.4146H52.0728ZM52.0728 12.1951V12.9756H51.2923V12.1951H52.0728ZM52.0728 12.9756V13.7561H51.2923V12.9756H52.0728ZM52.0728 10.6341V11.4146H51.2923V10.6341H52.0728ZM52.0728 9.85366V10.6341H51.2923V9.85366H52.0728ZM52.0728 9.07317V9.85366H51.2923V9.07317H52.0728ZM52.0728 8.29268V9.07317H51.2923V8.29268H52.0728ZM52.0728 7.5122V8.29268H51.2923V7.5122H52.0728ZM52.0728 6.73171V7.5122H51.2923V6.73171H52.0728ZM52.0728 5.95122V6.73171H51.2923V5.95122H52.0728ZM52.0728 5.17073V5.95122H51.2923V5.17073H52.0728ZM52.0728 4.39024V5.17073H51.2923V4.39024H52.0728ZM52.0728 3.60976V4.39024H51.2923V3.60976H52.0728ZM51.2923 5.17073V5.95122H50.5118V5.17073H51.2923ZM52.0728 2.82927V3.60976H51.2923V2.82927H52.0728ZM52.0728 2.04878V2.82927H51.2923V2.04878H52.0728ZM52.0728 1.26829V2.04878H51.2923V1.26829H52.0728ZM52.0728 0.487804V1.26829H51.2923V0.487804H52.0728ZM50.5118 0.487804V1.26829H49.7313V0.487804H50.5118ZM49.7313 0.487804V1.26829H48.9508V0.487804H49.7313ZM49.7313 1.26829V2.04878H48.9508V1.26829H49.7313ZM50.5118 1.26829V2.04878H49.7313V1.26829H50.5118ZM50.5118 2.04878V2.82927H49.7313V2.04878H50.5118ZM50.5118 2.82927V3.60976H49.7313V2.82927H50.5118ZM50.5118 3.60976V4.39024H49.7313V3.60976H50.5118ZM50.5118 4.39024V5.17073H49.7313V4.39024H50.5118ZM50.5118 5.17073V5.95122H49.7313V5.17073H50.5118ZM50.5118 5.95122V6.73171H49.7313V5.95122H50.5118ZM49.7313 6.73171V7.5122H48.9508V6.73171H49.7313ZM49.7313 7.5122V8.29268H48.9508V7.5122H49.7313ZM49.7313 5.95122V6.73171H48.9508V5.95122H49.7313ZM49.7313 5.17073V5.95122H48.9508V5.17073H49.7313ZM49.7313 4.39024V5.17073H48.9508V4.39024H49.7313ZM49.7313 3.60976V4.39024H48.9508V3.60976H49.7313ZM49.7313 2.82927V3.60976H48.9508V2.82927H49.7313ZM49.7313 2.04878V2.82927H48.9508V2.04878H49.7313ZM50.5118 6.73171V7.5122H49.7313V6.73171H50.5118ZM50.5118 7.5122V8.29268H49.7313V7.5122H50.5118ZM50.5118 8.29268V9.07317H49.7313V8.29268H50.5118ZM50.5118 9.07317V9.85366H49.7313V9.07317H50.5118ZM50.5118 9.85366V10.6341H49.7313V9.85366H50.5118ZM50.5118 10.6341V11.4146H49.7313V10.6341H50.5118ZM50.5118 11.4146V12.1951H49.7313V11.4146H50.5118ZM50.5118 12.1951V12.9756H49.7313V12.1951H50.5118ZM50.5118 12.9756V13.7561H49.7313V12.9756H50.5118ZM51.2923 12.1951V12.9756H50.5118V12.1951H51.2923ZM51.2923 11.4146V12.1951H50.5118V11.4146H51.2923Z" fill="#FFBE0B"/>
</svg>
