<svg width="30" height="30" viewBox="0 0 30 30" fill="none" xmlns="http://www.w3.org/2000/svg">
<path d="M15 13.5C13.6412 10.8575 9.9425 5.93376 6.5025 3.50626C3.2075 1.18001 1.95125 1.58251 1.1275 1.95626C0.17375 2.38501 0 3.85001 0 4.71001C0 5.57251 0.4725 11.7725 0.78 12.8088C1.79875 16.2288 5.42125 17.3838 8.75875 17.0138C8.92875 16.9888 9.1025 16.965 9.2775 16.9438C9.105 16.9713 8.9325 16.9938 8.75875 17.0138C3.86875 17.7388 -0.475 19.52 5.22125 25.8613C11.4875 32.3488 13.8088 24.47 15 20.4763C16.1912 24.47 17.5625 32.065 24.6663 25.8613C30 20.4763 26.1313 17.7388 21.2412 17.0138C21.0678 16.9946 20.8948 16.9712 20.7225 16.9438C20.8975 16.965 21.0713 16.9888 21.2412 17.0138C24.5788 17.385 28.2013 16.2288 29.22 12.8088C29.5275 11.7738 30 5.57126 30 4.71126C30 3.84876 29.8263 2.38501 28.8725 1.95376C28.0487 1.58126 26.7925 1.17876 23.4975 3.50376C20.0575 5.93501 16.3587 10.8588 15 13.5Z" fill="white"/>
</svg>
