<svg width="30" height="30" viewBox="0 0 30 30" fill="none" xmlns="http://www.w3.org/2000/svg">
<path d="M15 1.20001C22.6218 1.20001 28.8 7.37821 28.8 15C28.8 22.6218 22.6218 28.8 15 28.8C7.3782 28.8 1.2 22.6218 1.2 15C1.2 7.37821 7.3782 1.20001 15 1.20001ZM19.7604 20.625C20.0142 19.8462 21.2034 12.0846 21.3504 10.5552C21.3948 10.092 21.2484 9.78421 20.9616 9.64681C20.6148 9.48001 20.1012 9.56341 19.5054 9.77821C18.6882 10.0728 8.241 14.5086 7.6374 14.7654C7.065 15.0084 6.5238 15.2736 6.5238 15.6576C6.5238 15.9276 6.684 16.0794 7.1256 16.2372C7.5852 16.401 8.7426 16.752 9.426 16.9404C10.0842 17.1222 10.8336 16.9644 11.2536 16.7034C11.6988 16.4268 16.8366 12.9888 17.2056 12.6876C17.574 12.3864 17.868 12.7722 17.5668 13.074C17.2656 13.3752 13.7388 16.7982 13.2738 17.2722C12.7092 17.8476 13.11 18.444 13.4886 18.6828C13.9212 18.9552 17.0322 21.042 17.5008 21.3768C17.9694 21.7116 18.4446 21.8634 18.8796 21.8634C19.3146 21.8634 19.5438 21.2904 19.7604 20.625Z" fill="white"/>
</svg>
