<svg width="28" height="21" viewBox="0 0 28 21" fill="none" xmlns="http://www.w3.org/2000/svg">
<path d="M23.775 2.26233C21.3867 0.340451 17.6086 0.0146699 17.4469 0.00295067C17.1961 -0.0181429 16.957 0.122482 16.8539 0.354514C16.8445 0.368576 16.7625 0.55842 16.6711 0.853732C18.2508 1.12092 20.1914 1.65764 21.9469 2.74748C22.2281 2.92092 22.3148 3.29123 22.1414 3.57248C22.0266 3.75764 21.832 3.85842 21.6305 3.85842C21.5227 3.85842 21.4125 3.82795 21.3141 3.76701C18.2953 1.89436 14.5266 1.80061 13.8 1.80061C13.0734 1.80061 9.30234 1.89436 6.28594 3.76701C6.00469 3.94279 5.63438 3.85608 5.46094 3.57483C5.28516 3.29123 5.37188 2.92326 5.65313 2.74748C7.40859 1.65998 9.34922 1.12092 10.9289 0.856076C10.8375 0.55842 10.7555 0.37092 10.7484 0.354514C10.643 0.122482 10.4062 -0.0228301 10.1531 0.00295067C9.99141 0.0146699 6.21328 0.340451 3.79219 2.28811C2.52891 3.45764 0 10.292 0 16.2006C0 16.3061 0.028125 16.4069 0.0796878 16.4983C1.82344 19.5639 6.58359 20.3654 7.66875 20.4006C7.67344 20.4006 7.68047 20.4006 7.6875 20.4006C7.87969 20.4006 8.06016 20.3092 8.17266 20.1545L9.26953 18.6451C6.30937 17.8811 4.79766 16.5826 4.71094 16.5053C4.4625 16.2873 4.43906 15.9076 4.65938 15.6592C4.87734 15.4108 5.25703 15.3873 5.50547 15.6053C5.54063 15.6381 8.325 18.0006 13.8 18.0006C19.2844 18.0006 22.0688 15.6287 22.0969 15.6053C22.3453 15.3897 22.7227 15.4108 22.943 15.6615C23.1609 15.91 23.1375 16.2873 22.8891 16.5053C22.8023 16.5826 21.2906 17.8811 18.3305 18.6451L19.4273 20.1545C19.5398 20.3092 19.7203 20.4006 19.9125 20.4006C19.9195 20.4006 19.9266 20.4006 19.9313 20.4006C21.0164 20.3654 25.7766 19.5639 27.5203 16.4983C27.5719 16.4069 27.6 16.3061 27.6 16.2006C27.6 10.292 25.0711 3.45764 23.775 2.26233ZM9.9 13.8006C8.73984 13.8006 7.8 12.7272 7.8 11.4006C7.8 10.074 8.73984 9.00061 9.9 9.00061C11.0602 9.00061 12 10.074 12 11.4006C12 12.7272 11.0602 13.8006 9.9 13.8006ZM17.7 13.8006C16.5398 13.8006 15.6 12.7272 15.6 11.4006C15.6 10.074 16.5398 9.00061 17.7 9.00061C18.8602 9.00061 19.8 10.074 19.8 11.4006C19.8 12.7272 18.8602 13.8006 17.7 13.8006Z" fill="white"/>
</svg>
